solid sensorPad_flatSensor
 facet normal -1 0 0
  outer loop
   vertex -0.005 0.085091 -0.0520021
   vertex -0.005 0.122 -0.0520021
   vertex -0.005 0.085091 -0.0620021
  endloop
 endfacet
 facet normal -1 0 0
  outer loop
   vertex -0.005 0.085091 -0.0620021
   vertex -0.005 0.122 -0.0520021
   vertex -0.005 0.122 -0.0620021
  endloop
 endfacet
 facet normal 0 -0 1
  outer loop
   vertex 0.005 0.085091 -0.0520021
   vertex 0.005 0.122 -0.0520021
   vertex -0.005 0.085091 -0.0520021
  endloop
 endfacet
 facet normal 0 0 1
  outer loop
   vertex -0.005 0.085091 -0.0520021
   vertex 0.005 0.122 -0.0520021
   vertex -0.005 0.122 -0.0520021
  endloop
 endfacet
 facet normal 1 0 0
  outer loop
   vertex 0.005 0.085091 -0.0620021
   vertex 0.005 0.122 -0.0620021
   vertex 0.005 0.085091 -0.0520021
  endloop
 endfacet
 facet normal 1 -0 0
  outer loop
   vertex 0.005 0.085091 -0.0520021
   vertex 0.005 0.122 -0.0620021
   vertex 0.005 0.122 -0.0520021
  endloop
 endfacet
 facet normal 0 0 -1
  outer loop
   vertex -0.005 0.085091 -0.0620021
   vertex -0.005 0.122 -0.0620021
   vertex 0.005 0.085091 -0.0620021
  endloop
 endfacet
 facet normal 0 0 -1
  outer loop
   vertex 0.005 0.085091 -0.0620021
   vertex -0.005 0.122 -0.0620021
   vertex 0.005 0.122 -0.0620021
  endloop
 endfacet
 facet normal 0 1 0
  outer loop
   vertex 0.005 0.122 -0.0520021
   vertex 0.005 0.122 -0.0620021
   vertex -0.005 0.122 -0.0520021
  endloop
 endfacet
 facet normal 0 1 0
  outer loop
   vertex -0.005 0.122 -0.0520021
   vertex 0.005 0.122 -0.0620021
   vertex -0.005 0.122 -0.0620021
  endloop
 endfacet
 facet normal 0 -1 0
  outer loop
   vertex 0.005 0.085091 -0.0620021
   vertex 0.005 0.085091 -0.0520021
   vertex -0.005 0.085091 -0.0620021
  endloop
 endfacet
 facet normal 0 -1 0
  outer loop
   vertex -0.005 0.085091 -0.0620021
   vertex 0.005 0.085091 -0.0520021
   vertex -0.005 0.085091 -0.0520021
  endloop
 endfacet
endsolid sensorPad_flatSensor
