solid sensorPad_flatSensor
   facet normal -1.000000e+00 0.000000e+00 0.000000e+00
      outer loop
         vertex -5.000000e-03 8.309100e-02 -5.200208e-02
         vertex -5.000000e-03 1.200000e-01 -5.200208e-02
         vertex -5.000000e-03 8.309100e-02 -6.200208e-02
      endloop
   endfacet
   facet normal -1.000000e+00 0.000000e+00 0.000000e+00
      outer loop
         vertex -5.000000e-03 8.309100e-02 -6.200208e-02
         vertex -5.000000e-03 1.200000e-01 -5.200208e-02
         vertex -5.000000e-03 1.200000e-01 -6.200208e-02
      endloop
   endfacet
   facet normal 0.000000e+00 -0.000000e+00 1.000000e+00
      outer loop
         vertex 5.000000e-03 8.309100e-02 -5.200208e-02
         vertex 5.000000e-03 1.200000e-01 -5.200208e-02
         vertex -5.000000e-03 8.309100e-02 -5.200208e-02
      endloop
   endfacet
   facet normal 0.000000e+00 0.000000e+00 1.000000e+00
      outer loop
         vertex -5.000000e-03 8.309100e-02 -5.200208e-02
         vertex 5.000000e-03 1.200000e-01 -5.200208e-02
         vertex -5.000000e-03 1.200000e-01 -5.200208e-02
      endloop
   endfacet
   facet normal 1.000000e+00 0.000000e+00 0.000000e+00
      outer loop
         vertex 5.000000e-03 8.309100e-02 -6.200208e-02
         vertex 5.000000e-03 1.200000e-01 -6.200208e-02
         vertex 5.000000e-03 8.309100e-02 -5.200208e-02
      endloop
   endfacet
   facet normal 1.000000e+00 -0.000000e+00 0.000000e+00
      outer loop
         vertex 5.000000e-03 8.309100e-02 -5.200208e-02
         vertex 5.000000e-03 1.200000e-01 -6.200208e-02
         vertex 5.000000e-03 1.200000e-01 -5.200208e-02
      endloop
   endfacet
   facet normal 0.000000e+00 0.000000e+00 -1.000000e+00
      outer loop
         vertex -5.000000e-03 8.309100e-02 -6.200208e-02
         vertex -5.000000e-03 1.200000e-01 -6.200208e-02
         vertex 5.000000e-03 8.309100e-02 -6.200208e-02
      endloop
   endfacet
   facet normal 0.000000e+00 0.000000e+00 -1.000000e+00
      outer loop
         vertex 5.000000e-03 8.309100e-02 -6.200208e-02
         vertex -5.000000e-03 1.200000e-01 -6.200208e-02
         vertex 5.000000e-03 1.200000e-01 -6.200208e-02
      endloop
   endfacet
   facet normal 0.000000e+00 1.000000e+00 0.000000e+00
      outer loop
         vertex 5.000000e-03 1.200000e-01 -5.200208e-02
         vertex 5.000000e-03 1.200000e-01 -6.200208e-02
         vertex -5.000000e-03 1.200000e-01 -5.200208e-02
      endloop
   endfacet
   facet normal 0.000000e+00 1.000000e+00 0.000000e+00
      outer loop
         vertex -5.000000e-03 1.200000e-01 -5.200208e-02
         vertex 5.000000e-03 1.200000e-01 -6.200208e-02
         vertex -5.000000e-03 1.200000e-01 -6.200208e-02
      endloop
   endfacet
   facet normal 0.000000e+00 -1.000000e+00 0.000000e+00
      outer loop
         vertex 5.000000e-03 8.309100e-02 -6.200208e-02
         vertex 5.000000e-03 8.309100e-02 -5.200208e-02
         vertex -5.000000e-03 8.309100e-02 -6.200208e-02
      endloop
   endfacet
   facet normal 0.000000e+00 -1.000000e+00 0.000000e+00
      outer loop
         vertex -5.000000e-03 8.309100e-02 -6.200208e-02
         vertex 5.000000e-03 8.309100e-02 -5.200208e-02
         vertex -5.000000e-03 8.309100e-02 -5.200208e-02
      endloop
   endfacet
endsolid