solid sensorPad
   facet normal -1.000000e+00 -0.000000e+00 -0.000000e+00
      outer loop
         vertex -7.500000e-03 1.200000e-01 -5.000000e-02
         vertex -7.500000e-03 1.200000e-01 -6.500000e-02
         vertex -7.500000e-03 8.509100e-02 -5.000000e-02
      endloop
   endfacet
   facet normal -1.000000e+00 0.000000e+00 0.000000e+00
      outer loop
         vertex -7.500000e-03 8.509100e-02 -5.000000e-02
         vertex -7.500000e-03 1.200000e-01 -6.500000e-02
         vertex -7.500000e-03 8.509100e-02 -6.500000e-02
      endloop
   endfacet
   facet normal 0.000000e+00 0.000000e+00 1.000000e+00
      outer loop
         vertex 7.500000e-03 1.200000e-01 -5.000000e-02
         vertex -7.500000e-03 1.200000e-01 -5.000000e-02
         vertex 7.500000e-03 8.509100e-02 -5.000000e-02
      endloop
   endfacet
   facet normal 0.000000e+00 0.000000e+00 1.000000e+00
      outer loop
         vertex 7.500000e-03 8.509100e-02 -5.000000e-02
         vertex -7.500000e-03 1.200000e-01 -5.000000e-02
         vertex -7.500000e-03 8.509100e-02 -5.000000e-02
      endloop
   endfacet
   facet normal 1.000000e+00 0.000000e+00 -0.000000e+00
      outer loop
         vertex 7.500000e-03 1.200000e-01 -6.500000e-02
         vertex 7.500000e-03 1.200000e-01 -5.000000e-02
         vertex 7.500000e-03 8.509100e-02 -6.500000e-02
      endloop
   endfacet
   facet normal 1.000000e+00 0.000000e+00 0.000000e+00
      outer loop
         vertex 7.500000e-03 8.509100e-02 -6.500000e-02
         vertex 7.500000e-03 1.200000e-01 -5.000000e-02
         vertex 7.500000e-03 8.509100e-02 -5.000000e-02
      endloop
   endfacet
   facet normal 0.000000e+00 0.000000e+00 -1.000000e+00
      outer loop
         vertex -7.500000e-03 1.200000e-01 -6.500000e-02
         vertex 7.500000e-03 1.200000e-01 -6.500000e-02
         vertex -7.500000e-03 8.509100e-02 -6.500000e-02
      endloop
   endfacet
   facet normal 0.000000e+00 0.000000e+00 -1.000000e+00
      outer loop
         vertex -7.500000e-03 8.509100e-02 -6.500000e-02
         vertex 7.500000e-03 1.200000e-01 -6.500000e-02
         vertex 7.500000e-03 8.509100e-02 -6.500000e-02
      endloop
   endfacet
   facet normal 0.000000e+00 1.000000e+00 0.000000e+00
      outer loop
         vertex 7.500000e-03 1.200000e-01 -5.000000e-02
         vertex 7.500000e-03 1.200000e-01 -6.500000e-02
         vertex -7.500000e-03 1.200000e-01 -5.000000e-02
      endloop
   endfacet
   facet normal 0.000000e+00 1.000000e+00 0.000000e+00
      outer loop
         vertex -7.500000e-03 1.200000e-01 -5.000000e-02
         vertex 7.500000e-03 1.200000e-01 -6.500000e-02
         vertex -7.500000e-03 1.200000e-01 -6.500000e-02
      endloop
   endfacet
   facet normal 0.000000e+00 -1.000000e+00 0.000000e+00
      outer loop
         vertex 7.500000e-03 8.509100e-02 -6.500000e-02
         vertex 7.500000e-03 8.509100e-02 -5.000000e-02
         vertex -7.500000e-03 8.509100e-02 -6.500000e-02
      endloop
   endfacet
   facet normal 0.000000e+00 -1.000000e+00 0.000000e+00
      outer loop
         vertex -7.500000e-03 8.509100e-02 -6.500000e-02
         vertex 7.500000e-03 8.509100e-02 -5.000000e-02
         vertex -7.500000e-03 8.509100e-02 -5.000000e-02
      endloop
   endfacet
endsolid