solid sensor
   facet normal 1.000000e+00 0.000000e+00 0.000000e+00
      outer loop
         vertex 4.800000e-03 1.209410e-01 -1.500000e-01
         vertex 4.800000e-03 1.341410e-01 -1.500000e-01
         vertex 4.800000e-03 1.209410e-01 -1.027264e-01
      endloop
   endfacet
   facet normal 1.000000e+00 -0.000000e+00 0.000000e+00
      outer loop
         vertex 4.800000e-03 1.209410e-01 -1.027264e-01
         vertex 4.800000e-03 1.341410e-01 -1.500000e-01
         vertex 4.800000e-03 1.341410e-01 -1.027264e-01
      endloop
   endfacet
   facet normal 0.000000e+00 -1.000000e+00 0.000000e+00
      outer loop
         vertex -3.800000e-03 1.199410e-01 -1.500000e-01
         vertex 3.800000e-03 1.199410e-01 -1.500000e-01
         vertex -3.800000e-03 1.199410e-01 -1.027264e-01
      endloop
   endfacet
   facet normal 0.000000e+00 -1.000000e+00 0.000000e+00
      outer loop
         vertex -3.800000e-03 1.199410e-01 -1.027264e-01
         vertex 3.800000e-03 1.199410e-01 -1.500000e-01
         vertex 3.800000e-03 1.199410e-01 -1.027264e-01
      endloop
   endfacet
   facet normal -1.000000e+00 0.000000e+00 0.000000e+00
      outer loop
         vertex -4.800000e-03 1.209410e-01 -1.027264e-01
         vertex -4.800000e-03 1.341410e-01 -1.027264e-01
         vertex -4.800000e-03 1.209410e-01 -1.500000e-01
      endloop
   endfacet
   facet normal -1.000000e+00 0.000000e+00 0.000000e+00
      outer loop
         vertex -4.800000e-03 1.209410e-01 -1.500000e-01
         vertex -4.800000e-03 1.341410e-01 -1.027264e-01
         vertex -4.800000e-03 1.341410e-01 -1.500000e-01
      endloop
   endfacet
   facet normal 0.000000e+00 1.000000e+00 -0.000000e+00
      outer loop
         vertex 3.800000e-03 1.351410e-01 -1.500000e-01
         vertex -3.800000e-03 1.351410e-01 -1.500000e-01
         vertex 3.800000e-03 1.351410e-01 -1.027264e-01
      endloop
   endfacet
   facet normal 0.000000e+00 1.000000e+00 0.000000e+00
      outer loop
         vertex 3.800000e-03 1.351410e-01 -1.027264e-01
         vertex -3.800000e-03 1.351410e-01 -1.500000e-01
         vertex -3.800000e-03 1.351410e-01 -1.027264e-01
      endloop
   endfacet
   facet normal 0.000000e+00 0.000000e+00 -1.000000e+00
      outer loop
         vertex -4.800000e-03 1.209410e-01 -1.500000e-01
         vertex -3.887156e-03 1.199448e-01 -1.500000e-01
         vertex -3.973648e-03 1.199562e-01 -1.500000e-01
      endloop
   endfacet
   facet normal 0.000000e+00 0.000000e+00 -1.000000e+00
      outer loop
         vertex -4.442788e-03 1.201750e-01 -1.500000e-01
         vertex -4.507107e-03 1.202339e-01 -1.500000e-01
         vertex -4.800000e-03 1.209410e-01 -1.500000e-01
      endloop
   endfacet
   facet normal 0.000000e+00 0.000000e+00 -1.000000e+00
      outer loop
         vertex 4.507107e-03 1.348481e-01 -1.500000e-01
         vertex 4.566045e-03 1.347838e-01 -1.500000e-01
         vertex 4.800000e-03 1.341410e-01 -1.500000e-01
      endloop
   endfacet
   facet normal 0.000000e+00 -0.000000e+00 -1.000000e+00
      outer loop
         vertex 4.800000e-03 1.341410e-01 -1.500000e-01
         vertex 4.800000e-03 1.209410e-01 -1.500000e-01
         vertex 3.800000e-03 1.199410e-01 -1.500000e-01
      endloop
   endfacet
   facet normal 0.000000e+00 -0.000000e+00 -1.000000e+00
      outer loop
         vertex -3.973648e-03 1.351258e-01 -1.500000e-01
         vertex -3.887156e-03 1.351372e-01 -1.500000e-01
         vertex -4.800000e-03 1.341410e-01 -1.500000e-01
      endloop
   endfacet
   facet normal 0.000000e+00 0.000000e+00 -1.000000e+00
      outer loop
         vertex -4.800000e-03 1.341410e-01 -1.500000e-01
         vertex -3.887156e-03 1.351372e-01 -1.500000e-01
         vertex -3.800000e-03 1.351410e-01 -1.500000e-01
      endloop
   endfacet
   facet normal 0.000000e+00 0.000000e+00 -1.000000e+00
      outer loop
         vertex -4.800000e-03 1.341410e-01 -1.500000e-01
         vertex -3.800000e-03 1.351410e-01 -1.500000e-01
         vertex -4.800000e-03 1.209410e-01 -1.500000e-01
      endloop
   endfacet
   facet normal 0.000000e+00 0.000000e+00 -1.000000e+00
      outer loop
         vertex -3.887156e-03 1.199448e-01 -1.500000e-01
         vertex -4.800000e-03 1.209410e-01 -1.500000e-01
         vertex -3.800000e-03 1.199410e-01 -1.500000e-01
      endloop
   endfacet
   facet normal 0.000000e+00 0.000000e+00 -1.000000e+00
      outer loop
         vertex -3.800000e-03 1.199410e-01 -1.500000e-01
         vertex -4.800000e-03 1.209410e-01 -1.500000e-01
         vertex -3.800000e-03 1.351410e-01 -1.500000e-01
      endloop
   endfacet
   facet normal 0.000000e+00 0.000000e+00 -1.000000e+00
      outer loop
         vertex -3.800000e-03 1.199410e-01 -1.500000e-01
         vertex -3.800000e-03 1.351410e-01 -1.500000e-01
         vertex 3.800000e-03 1.199410e-01 -1.500000e-01
      endloop
   endfacet
   facet normal 0.000000e+00 0.000000e+00 -1.000000e+00
      outer loop
         vertex 3.800000e-03 1.199410e-01 -1.500000e-01
         vertex -3.800000e-03 1.351410e-01 -1.500000e-01
         vertex 3.800000e-03 1.351410e-01 -1.500000e-01
      endloop
   endfacet
   facet normal 0.000000e+00 0.000000e+00 -1.000000e+00
      outer loop
         vertex 3.800000e-03 1.199410e-01 -1.500000e-01
         vertex 3.800000e-03 1.351410e-01 -1.500000e-01
         vertex 4.800000e-03 1.341410e-01 -1.500000e-01
      endloop
   endfacet
   facet normal 0.000000e+00 0.000000e+00 -1.000000e+00
      outer loop
         vertex 4.800000e-03 1.341410e-01 -1.500000e-01
         vertex 3.800000e-03 1.351410e-01 -1.500000e-01
         vertex 3.887156e-03 1.351372e-01 -1.500000e-01
      endloop
   endfacet
   facet normal 0.000000e+00 0.000000e+00 -1.000000e+00
      outer loop
         vertex 4.800000e-03 1.341410e-01 -1.500000e-01
         vertex 3.887156e-03 1.351372e-01 -1.500000e-01
         vertex 3.973648e-03 1.351258e-01 -1.500000e-01
      endloop
   endfacet
   facet normal -0.000000e+00 -0.000000e+00 -1.000000e+00
      outer loop
         vertex 4.507107e-03 1.348481e-01 -1.500000e-01
         vertex 4.800000e-03 1.341410e-01 -1.500000e-01
         vertex 4.442788e-03 1.349070e-01 -1.500000e-01
      endloop
   endfacet
   facet normal -0.000000e+00 0.000000e+00 -1.000000e+00
      outer loop
         vertex 4.142020e-03 1.200013e-01 -1.500000e-01
         vertex 4.058819e-03 1.199751e-01 -1.500000e-01
         vertex 4.800000e-03 1.209410e-01 -1.500000e-01
      endloop
   endfacet
   facet normal 0.000000e+00 0.000000e+00 -1.000000e+00
      outer loop
         vertex -4.800000e-03 1.341410e-01 -1.500000e-01
         vertex -4.507107e-03 1.348481e-01 -1.500000e-01
         vertex -4.442788e-03 1.349070e-01 -1.500000e-01
      endloop
   endfacet
   facet normal -0.000000e+00 0.000000e+00 -1.000000e+00
      outer loop
         vertex 4.058819e-03 1.199751e-01 -1.500000e-01
         vertex 3.973648e-03 1.199562e-01 -1.500000e-01
         vertex 4.800000e-03 1.209410e-01 -1.500000e-01
      endloop
   endfacet
   facet normal 0.000000e+00 0.000000e+00 -1.000000e+00
      outer loop
         vertex 4.800000e-03 1.209410e-01 -1.500000e-01
         vertex 3.973648e-03 1.199562e-01 -1.500000e-01
         vertex 3.887156e-03 1.199448e-01 -1.500000e-01
      endloop
   endfacet
   facet normal 0.000000e+00 0.000000e+00 -1.000000e+00
      outer loop
         vertex 4.800000e-03 1.209410e-01 -1.500000e-01
         vertex 3.887156e-03 1.199448e-01 -1.500000e-01
         vertex 3.800000e-03 1.199410e-01 -1.500000e-01
      endloop
   endfacet
   facet normal 0.000000e+00 0.000000e+00 -1.000000e+00
      outer loop
         vertex -3.973648e-03 1.199562e-01 -1.500000e-01
         vertex -4.058819e-03 1.199751e-01 -1.500000e-01
         vertex -4.800000e-03 1.209410e-01 -1.500000e-01
      endloop
   endfacet
   facet normal 0.000000e+00 0.000000e+00 -1.000000e+00
      outer loop
         vertex -4.800000e-03 1.209410e-01 -1.500000e-01
         vertex -4.058819e-03 1.199751e-01 -1.500000e-01
         vertex -4.142020e-03 1.200013e-01 -1.500000e-01
      endloop
   endfacet
   facet normal 0.000000e+00 0.000000e+00 -1.000000e+00
      outer loop
         vertex -4.800000e-03 1.209410e-01 -1.500000e-01
         vertex -4.142020e-03 1.200013e-01 -1.500000e-01
         vertex -4.222618e-03 1.200347e-01 -1.500000e-01
      endloop
   endfacet
   facet normal 0.000000e+00 0.000000e+00 -1.000000e+00
      outer loop
         vertex -4.222618e-03 1.200347e-01 -1.500000e-01
         vertex -4.300000e-03 1.200750e-01 -1.500000e-01
         vertex -4.800000e-03 1.209410e-01 -1.500000e-01
      endloop
   endfacet
   facet normal 0.000000e+00 0.000000e+00 -1.000000e+00
      outer loop
         vertex -4.800000e-03 1.209410e-01 -1.500000e-01
         vertex -4.300000e-03 1.200750e-01 -1.500000e-01
         vertex -4.373576e-03 1.201219e-01 -1.500000e-01
      endloop
   endfacet
   facet normal 0.000000e+00 0.000000e+00 -1.000000e+00
      outer loop
         vertex -4.800000e-03 1.209410e-01 -1.500000e-01
         vertex -4.373576e-03 1.201219e-01 -1.500000e-01
         vertex -4.442788e-03 1.201750e-01 -1.500000e-01
      endloop
   endfacet
   facet normal 0.000000e+00 0.000000e+00 -1.000000e+00
      outer loop
         vertex -4.765926e-03 1.206822e-01 -1.500000e-01
         vertex -4.784808e-03 1.207674e-01 -1.500000e-01
         vertex -4.507107e-03 1.202339e-01 -1.500000e-01
      endloop
   endfacet
   facet normal 0.000000e+00 0.000000e+00 -1.000000e+00
      outer loop
         vertex -4.507107e-03 1.202339e-01 -1.500000e-01
         vertex -4.784808e-03 1.207674e-01 -1.500000e-01
         vertex -4.796195e-03 1.208538e-01 -1.500000e-01
      endloop
   endfacet
   facet normal 0.000000e+00 0.000000e+00 -1.000000e+00
      outer loop
         vertex -4.507107e-03 1.202339e-01 -1.500000e-01
         vertex -4.796195e-03 1.208538e-01 -1.500000e-01
         vertex -4.800000e-03 1.209410e-01 -1.500000e-01
      endloop
   endfacet
   facet normal 0.000000e+00 -0.000000e+00 -1.000000e+00
      outer loop
         vertex -4.784808e-03 1.343146e-01 -1.500000e-01
         vertex -4.765926e-03 1.343998e-01 -1.500000e-01
         vertex -4.796195e-03 1.342282e-01 -1.500000e-01
      endloop
   endfacet
   facet normal 0.000000e+00 0.000000e+00 -1.000000e+00
      outer loop
         vertex -4.796195e-03 1.342282e-01 -1.500000e-01
         vertex -4.765926e-03 1.343998e-01 -1.500000e-01
         vertex -4.739692e-03 1.344830e-01 -1.500000e-01
      endloop
   endfacet
   facet normal 0.000000e+00 -0.000000e+00 -1.000000e+00
      outer loop
         vertex -4.796195e-03 1.342282e-01 -1.500000e-01
         vertex -4.739692e-03 1.344830e-01 -1.500000e-01
         vertex -4.800000e-03 1.341410e-01 -1.500000e-01
      endloop
   endfacet
   facet normal 0.000000e+00 0.000000e+00 -1.000000e+00
      outer loop
         vertex -4.800000e-03 1.341410e-01 -1.500000e-01
         vertex -4.739692e-03 1.344830e-01 -1.500000e-01
         vertex -4.706308e-03 1.345636e-01 -1.500000e-01
      endloop
   endfacet
   facet normal 0.000000e+00 0.000000e+00 -1.000000e+00
      outer loop
         vertex -4.800000e-03 1.341410e-01 -1.500000e-01
         vertex -4.706308e-03 1.345636e-01 -1.500000e-01
         vertex -4.666025e-03 1.346410e-01 -1.500000e-01
      endloop
   endfacet
   facet normal 0.000000e+00 -0.000000e+00 -1.000000e+00
      outer loop
         vertex -4.666025e-03 1.346410e-01 -1.500000e-01
         vertex -4.619152e-03 1.347146e-01 -1.500000e-01
         vertex -4.800000e-03 1.341410e-01 -1.500000e-01
      endloop
   endfacet
   facet normal 0.000000e+00 0.000000e+00 -1.000000e+00
      outer loop
         vertex -4.800000e-03 1.341410e-01 -1.500000e-01
         vertex -4.619152e-03 1.347146e-01 -1.500000e-01
         vertex -4.566045e-03 1.347838e-01 -1.500000e-01
      endloop
   endfacet
   facet normal 0.000000e+00 0.000000e+00 -1.000000e+00
      outer loop
         vertex -4.800000e-03 1.341410e-01 -1.500000e-01
         vertex -4.566045e-03 1.347838e-01 -1.500000e-01
         vertex -4.507107e-03 1.348481e-01 -1.500000e-01
      endloop
   endfacet
   facet normal 0.000000e+00 -0.000000e+00 -1.000000e+00
      outer loop
         vertex -4.442788e-03 1.349070e-01 -1.500000e-01
         vertex -4.373576e-03 1.349601e-01 -1.500000e-01
         vertex -4.800000e-03 1.341410e-01 -1.500000e-01
      endloop
   endfacet
   facet normal 0.000000e+00 0.000000e+00 -1.000000e+00
      outer loop
         vertex -4.800000e-03 1.341410e-01 -1.500000e-01
         vertex -4.373576e-03 1.349601e-01 -1.500000e-01
         vertex -4.300000e-03 1.350070e-01 -1.500000e-01
      endloop
   endfacet
   facet normal 0.000000e+00 0.000000e+00 -1.000000e+00
      outer loop
         vertex -4.800000e-03 1.341410e-01 -1.500000e-01
         vertex -4.300000e-03 1.350070e-01 -1.500000e-01
         vertex -4.222618e-03 1.350473e-01 -1.500000e-01
      endloop
   endfacet
   facet normal 0.000000e+00 -0.000000e+00 -1.000000e+00
      outer loop
         vertex -4.222618e-03 1.350473e-01 -1.500000e-01
         vertex -4.142020e-03 1.350807e-01 -1.500000e-01
         vertex -4.800000e-03 1.341410e-01 -1.500000e-01
      endloop
   endfacet
   facet normal 0.000000e+00 0.000000e+00 -1.000000e+00
      outer loop
         vertex -4.800000e-03 1.341410e-01 -1.500000e-01
         vertex -4.142020e-03 1.350807e-01 -1.500000e-01
         vertex -4.058819e-03 1.351069e-01 -1.500000e-01
      endloop
   endfacet
   facet normal 0.000000e+00 0.000000e+00 -1.000000e+00
      outer loop
         vertex -4.800000e-03 1.341410e-01 -1.500000e-01
         vertex -4.058819e-03 1.351069e-01 -1.500000e-01
         vertex -3.973648e-03 1.351258e-01 -1.500000e-01
      endloop
   endfacet
   facet normal 0.000000e+00 0.000000e+00 -1.000000e+00
      outer loop
         vertex 3.973648e-03 1.351258e-01 -1.500000e-01
         vertex 4.058819e-03 1.351069e-01 -1.500000e-01
         vertex 4.800000e-03 1.341410e-01 -1.500000e-01
      endloop
   endfacet
   facet normal 0.000000e+00 0.000000e+00 -1.000000e+00
      outer loop
         vertex 4.800000e-03 1.341410e-01 -1.500000e-01
         vertex 4.058819e-03 1.351069e-01 -1.500000e-01
         vertex 4.142020e-03 1.350807e-01 -1.500000e-01
      endloop
   endfacet
   facet normal 0.000000e+00 0.000000e+00 -1.000000e+00
      outer loop
         vertex 4.800000e-03 1.341410e-01 -1.500000e-01
         vertex 4.142020e-03 1.350807e-01 -1.500000e-01
         vertex 4.222618e-03 1.350473e-01 -1.500000e-01
      endloop
   endfacet
   facet normal 0.000000e+00 0.000000e+00 -1.000000e+00
      outer loop
         vertex 4.222618e-03 1.350473e-01 -1.500000e-01
         vertex 4.300000e-03 1.350070e-01 -1.500000e-01
         vertex 4.800000e-03 1.341410e-01 -1.500000e-01
      endloop
   endfacet
   facet normal 0.000000e+00 0.000000e+00 -1.000000e+00
      outer loop
         vertex 4.800000e-03 1.341410e-01 -1.500000e-01
         vertex 4.300000e-03 1.350070e-01 -1.500000e-01
         vertex 4.373576e-03 1.349601e-01 -1.500000e-01
      endloop
   endfacet
   facet normal 0.000000e+00 0.000000e+00 -1.000000e+00
      outer loop
         vertex 4.800000e-03 1.341410e-01 -1.500000e-01
         vertex 4.373576e-03 1.349601e-01 -1.500000e-01
         vertex 4.442788e-03 1.349070e-01 -1.500000e-01
      endloop
   endfacet
   facet normal 0.000000e+00 0.000000e+00 -1.000000e+00
      outer loop
         vertex 4.566045e-03 1.347838e-01 -1.500000e-01
         vertex 4.619152e-03 1.347146e-01 -1.500000e-01
         vertex 4.800000e-03 1.341410e-01 -1.500000e-01
      endloop
   endfacet
   facet normal 0.000000e+00 0.000000e+00 -1.000000e+00
      outer loop
         vertex 4.800000e-03 1.341410e-01 -1.500000e-01
         vertex 4.619152e-03 1.347146e-01 -1.500000e-01
         vertex 4.666025e-03 1.346410e-01 -1.500000e-01
      endloop
   endfacet
   facet normal 0.000000e+00 0.000000e+00 -1.000000e+00
      outer loop
         vertex 4.800000e-03 1.341410e-01 -1.500000e-01
         vertex 4.666025e-03 1.346410e-01 -1.500000e-01
         vertex 4.706308e-03 1.345636e-01 -1.500000e-01
      endloop
   endfacet
   facet normal 0.000000e+00 0.000000e+00 -1.000000e+00
      outer loop
         vertex -4.507107e-03 1.202339e-01 -1.500000e-01
         vertex -4.566045e-03 1.202982e-01 -1.500000e-01
         vertex -4.765926e-03 1.206822e-01 -1.500000e-01
      endloop
   endfacet
   facet normal 0.000000e+00 0.000000e+00 -1.000000e+00
      outer loop
         vertex -4.765926e-03 1.206822e-01 -1.500000e-01
         vertex -4.566045e-03 1.202982e-01 -1.500000e-01
         vertex -4.619152e-03 1.203674e-01 -1.500000e-01
      endloop
   endfacet
   facet normal 0.000000e+00 0.000000e+00 -1.000000e+00
      outer loop
         vertex -4.765926e-03 1.206822e-01 -1.500000e-01
         vertex -4.619152e-03 1.203674e-01 -1.500000e-01
         vertex -4.739692e-03 1.205990e-01 -1.500000e-01
      endloop
   endfacet
   facet normal 0.000000e+00 0.000000e+00 -1.000000e+00
      outer loop
         vertex -4.739692e-03 1.205990e-01 -1.500000e-01
         vertex -4.619152e-03 1.203674e-01 -1.500000e-01
         vertex -4.666025e-03 1.204410e-01 -1.500000e-01
      endloop
   endfacet
   facet normal 0.000000e+00 0.000000e+00 -1.000000e+00
      outer loop
         vertex -4.739692e-03 1.205990e-01 -1.500000e-01
         vertex -4.666025e-03 1.204410e-01 -1.500000e-01
         vertex -4.706308e-03 1.205184e-01 -1.500000e-01
      endloop
   endfacet
   facet normal 0.000000e+00 0.000000e+00 -1.000000e+00
      outer loop
         vertex 4.706308e-03 1.345636e-01 -1.500000e-01
         vertex 4.739692e-03 1.344830e-01 -1.500000e-01
         vertex 4.800000e-03 1.341410e-01 -1.500000e-01
      endloop
   endfacet
   facet normal 0.000000e+00 0.000000e+00 -1.000000e+00
      outer loop
         vertex 4.800000e-03 1.341410e-01 -1.500000e-01
         vertex 4.739692e-03 1.344830e-01 -1.500000e-01
         vertex 4.765926e-03 1.343998e-01 -1.500000e-01
      endloop
   endfacet
   facet normal 0.000000e+00 0.000000e+00 -1.000000e+00
      outer loop
         vertex 4.800000e-03 1.341410e-01 -1.500000e-01
         vertex 4.765926e-03 1.343998e-01 -1.500000e-01
         vertex 4.796195e-03 1.342282e-01 -1.500000e-01
      endloop
   endfacet
   facet normal 0.000000e+00 0.000000e+00 -1.000000e+00
      outer loop
         vertex 4.796195e-03 1.342282e-01 -1.500000e-01
         vertex 4.765926e-03 1.343998e-01 -1.500000e-01
         vertex 4.784808e-03 1.343146e-01 -1.500000e-01
      endloop
   endfacet
   facet normal 0.000000e+00 0.000000e+00 -1.000000e+00
      outer loop
         vertex 4.800000e-03 1.209410e-01 -1.500000e-01
         vertex 4.796195e-03 1.208538e-01 -1.500000e-01
         vertex 4.784808e-03 1.207674e-01 -1.500000e-01
      endloop
   endfacet
   facet normal -0.000000e+00 0.000000e+00 -1.000000e+00
      outer loop
         vertex 4.566045e-03 1.202982e-01 -1.500000e-01
         vertex 4.507107e-03 1.202339e-01 -1.500000e-01
         vertex 4.800000e-03 1.209410e-01 -1.500000e-01
      endloop
   endfacet
   facet normal 0.000000e+00 0.000000e+00 -1.000000e+00
      outer loop
         vertex 4.800000e-03 1.209410e-01 -1.500000e-01
         vertex 4.507107e-03 1.202339e-01 -1.500000e-01
         vertex 4.442788e-03 1.201750e-01 -1.500000e-01
      endloop
   endfacet
   facet normal 0.000000e+00 0.000000e+00 -1.000000e+00
      outer loop
         vertex 4.800000e-03 1.209410e-01 -1.500000e-01
         vertex 4.442788e-03 1.201750e-01 -1.500000e-01
         vertex 4.373576e-03 1.201219e-01 -1.500000e-01
      endloop
   endfacet
   facet normal -0.000000e+00 0.000000e+00 -1.000000e+00
      outer loop
         vertex 4.373576e-03 1.201219e-01 -1.500000e-01
         vertex 4.300000e-03 1.200750e-01 -1.500000e-01
         vertex 4.800000e-03 1.209410e-01 -1.500000e-01
      endloop
   endfacet
   facet normal 0.000000e+00 0.000000e+00 -1.000000e+00
      outer loop
         vertex 4.800000e-03 1.209410e-01 -1.500000e-01
         vertex 4.300000e-03 1.200750e-01 -1.500000e-01
         vertex 4.222618e-03 1.200347e-01 -1.500000e-01
      endloop
   endfacet
   facet normal 0.000000e+00 0.000000e+00 -1.000000e+00
      outer loop
         vertex 4.800000e-03 1.209410e-01 -1.500000e-01
         vertex 4.222618e-03 1.200347e-01 -1.500000e-01
         vertex 4.142020e-03 1.200013e-01 -1.500000e-01
      endloop
   endfacet
   facet normal -0.000000e+00 0.000000e+00 -1.000000e+00
      outer loop
         vertex 4.784808e-03 1.207674e-01 -1.500000e-01
         vertex 4.765926e-03 1.206822e-01 -1.500000e-01
         vertex 4.800000e-03 1.209410e-01 -1.500000e-01
      endloop
   endfacet
   facet normal 0.000000e+00 0.000000e+00 -1.000000e+00
      outer loop
         vertex 4.800000e-03 1.209410e-01 -1.500000e-01
         vertex 4.765926e-03 1.206822e-01 -1.500000e-01
         vertex 4.739692e-03 1.205990e-01 -1.500000e-01
      endloop
   endfacet
   facet normal 0.000000e+00 0.000000e+00 -1.000000e+00
      outer loop
         vertex 4.800000e-03 1.209410e-01 -1.500000e-01
         vertex 4.739692e-03 1.205990e-01 -1.500000e-01
         vertex 4.706308e-03 1.205184e-01 -1.500000e-01
      endloop
   endfacet
   facet normal -0.000000e+00 0.000000e+00 -1.000000e+00
      outer loop
         vertex 4.706308e-03 1.205184e-01 -1.500000e-01
         vertex 4.666025e-03 1.204410e-01 -1.500000e-01
         vertex 4.800000e-03 1.209410e-01 -1.500000e-01
      endloop
   endfacet
   facet normal 0.000000e+00 0.000000e+00 -1.000000e+00
      outer loop
         vertex 4.800000e-03 1.209410e-01 -1.500000e-01
         vertex 4.666025e-03 1.204410e-01 -1.500000e-01
         vertex 4.619152e-03 1.203674e-01 -1.500000e-01
      endloop
   endfacet
   facet normal 0.000000e+00 0.000000e+00 -1.000000e+00
      outer loop
         vertex 4.800000e-03 1.209410e-01 -1.500000e-01
         vertex 4.619152e-03 1.203674e-01 -1.500000e-01
         vertex 4.566045e-03 1.202982e-01 -1.500000e-01
      endloop
   endfacet
   facet normal -0.000000e+00 -0.000000e+00 1.000000e+00
      outer loop
         vertex -3.973648e-03 1.199562e-01 -1.027264e-01
         vertex -3.887156e-03 1.199448e-01 -1.027264e-01
         vertex -4.800000e-03 1.209410e-01 -1.027264e-01
      endloop
   endfacet
   facet normal 0.000000e+00 0.000000e+00 1.000000e+00
      outer loop
         vertex -4.800000e-03 1.209410e-01 -1.027264e-01
         vertex -3.887156e-03 1.199448e-01 -1.027264e-01
         vertex -3.800000e-03 1.199410e-01 -1.027264e-01
      endloop
   endfacet
   facet normal -0.000000e+00 0.000000e+00 1.000000e+00
      outer loop
         vertex -4.800000e-03 1.209410e-01 -1.027264e-01
         vertex -3.800000e-03 1.199410e-01 -1.027264e-01
         vertex -4.800000e-03 1.341410e-01 -1.027264e-01
      endloop
   endfacet
   facet normal 0.000000e+00 0.000000e+00 1.000000e+00
      outer loop
         vertex 3.973648e-03 1.351258e-01 -1.027264e-01
         vertex 3.887156e-03 1.351372e-01 -1.027264e-01
         vertex 4.800000e-03 1.341410e-01 -1.027264e-01
      endloop
   endfacet
   facet normal 0.000000e+00 0.000000e+00 1.000000e+00
      outer loop
         vertex 4.800000e-03 1.341410e-01 -1.027264e-01
         vertex 3.887156e-03 1.351372e-01 -1.027264e-01
         vertex 3.800000e-03 1.351410e-01 -1.027264e-01
      endloop
   endfacet
   facet normal 0.000000e+00 0.000000e+00 1.000000e+00
      outer loop
         vertex 4.800000e-03 1.341410e-01 -1.027264e-01
         vertex 3.800000e-03 1.351410e-01 -1.027264e-01
         vertex 4.800000e-03 1.209410e-01 -1.027264e-01
      endloop
   endfacet
   facet normal 0.000000e+00 -0.000000e+00 1.000000e+00
      outer loop
         vertex 4.058819e-03 1.199751e-01 -1.027264e-01
         vertex 4.800000e-03 1.209410e-01 -1.027264e-01
         vertex 3.973648e-03 1.199562e-01 -1.027264e-01
      endloop
   endfacet
   facet normal 0.000000e+00 -0.000000e+00 1.000000e+00
      outer loop
         vertex 3.973648e-03 1.199562e-01 -1.027264e-01
         vertex 4.800000e-03 1.209410e-01 -1.027264e-01
         vertex 3.887156e-03 1.199448e-01 -1.027264e-01
      endloop
   endfacet
   facet normal 0.000000e+00 0.000000e+00 1.000000e+00
      outer loop
         vertex 4.619152e-03 1.347146e-01 -1.027264e-01
         vertex 4.566045e-03 1.347838e-01 -1.027264e-01
         vertex 4.800000e-03 1.341410e-01 -1.027264e-01
      endloop
   endfacet
   facet normal 0.000000e+00 0.000000e+00 1.000000e+00
      outer loop
         vertex 4.800000e-03 1.341410e-01 -1.027264e-01
         vertex 4.566045e-03 1.347838e-01 -1.027264e-01
         vertex 4.507107e-03 1.348481e-01 -1.027264e-01
      endloop
   endfacet
   facet normal 0.000000e+00 0.000000e+00 1.000000e+00
      outer loop
         vertex 4.800000e-03 1.341410e-01 -1.027264e-01
         vertex 4.507107e-03 1.348481e-01 -1.027264e-01
         vertex 4.442788e-03 1.349070e-01 -1.027264e-01
      endloop
   endfacet
   facet normal 0.000000e+00 0.000000e+00 1.000000e+00
      outer loop
         vertex 4.739692e-03 1.344830e-01 -1.027264e-01
         vertex 4.706308e-03 1.345636e-01 -1.027264e-01
         vertex 4.800000e-03 1.341410e-01 -1.027264e-01
      endloop
   endfacet
   facet normal 0.000000e+00 0.000000e+00 1.000000e+00
      outer loop
         vertex 4.800000e-03 1.341410e-01 -1.027264e-01
         vertex 4.706308e-03 1.345636e-01 -1.027264e-01
         vertex 4.666025e-03 1.346410e-01 -1.027264e-01
      endloop
   endfacet
   facet normal 0.000000e+00 0.000000e+00 1.000000e+00
      outer loop
         vertex 4.800000e-03 1.341410e-01 -1.027264e-01
         vertex 4.666025e-03 1.346410e-01 -1.027264e-01
         vertex 4.619152e-03 1.347146e-01 -1.027264e-01
      endloop
   endfacet
   facet normal 0.000000e+00 0.000000e+00 1.000000e+00
      outer loop
         vertex 4.442788e-03 1.349070e-01 -1.027264e-01
         vertex 4.373576e-03 1.349601e-01 -1.027264e-01
         vertex 4.800000e-03 1.341410e-01 -1.027264e-01
      endloop
   endfacet
   facet normal 0.000000e+00 0.000000e+00 1.000000e+00
      outer loop
         vertex 4.800000e-03 1.341410e-01 -1.027264e-01
         vertex 4.373576e-03 1.349601e-01 -1.027264e-01
         vertex 4.300000e-03 1.350070e-01 -1.027264e-01
      endloop
   endfacet
   facet normal 0.000000e+00 0.000000e+00 1.000000e+00
      outer loop
         vertex 4.800000e-03 1.341410e-01 -1.027264e-01
         vertex 4.300000e-03 1.350070e-01 -1.027264e-01
         vertex 4.222618e-03 1.350473e-01 -1.027264e-01
      endloop
   endfacet
   facet normal 0.000000e+00 0.000000e+00 1.000000e+00
      outer loop
         vertex 4.222618e-03 1.350473e-01 -1.027264e-01
         vertex 4.142020e-03 1.350807e-01 -1.027264e-01
         vertex 4.800000e-03 1.341410e-01 -1.027264e-01
      endloop
   endfacet
   facet normal 0.000000e+00 0.000000e+00 1.000000e+00
      outer loop
         vertex 4.800000e-03 1.341410e-01 -1.027264e-01
         vertex 4.142020e-03 1.350807e-01 -1.027264e-01
         vertex 4.058819e-03 1.351069e-01 -1.027264e-01
      endloop
   endfacet
   facet normal 0.000000e+00 0.000000e+00 1.000000e+00
      outer loop
         vertex 4.800000e-03 1.341410e-01 -1.027264e-01
         vertex 4.058819e-03 1.351069e-01 -1.027264e-01
         vertex 3.973648e-03 1.351258e-01 -1.027264e-01
      endloop
   endfacet
   facet normal 0.000000e+00 -0.000000e+00 1.000000e+00
      outer loop
         vertex 3.887156e-03 1.199448e-01 -1.027264e-01
         vertex 4.800000e-03 1.209410e-01 -1.027264e-01
         vertex 3.800000e-03 1.199410e-01 -1.027264e-01
      endloop
   endfacet
   facet normal 0.000000e+00 0.000000e+00 1.000000e+00
      outer loop
         vertex 3.800000e-03 1.199410e-01 -1.027264e-01
         vertex 4.800000e-03 1.209410e-01 -1.027264e-01
         vertex 3.800000e-03 1.351410e-01 -1.027264e-01
      endloop
   endfacet
   facet normal 0.000000e+00 -0.000000e+00 1.000000e+00
      outer loop
         vertex 3.800000e-03 1.199410e-01 -1.027264e-01
         vertex 3.800000e-03 1.351410e-01 -1.027264e-01
         vertex -3.800000e-03 1.199410e-01 -1.027264e-01
      endloop
   endfacet
   facet normal 0.000000e+00 0.000000e+00 1.000000e+00
      outer loop
         vertex -3.800000e-03 1.199410e-01 -1.027264e-01
         vertex 3.800000e-03 1.351410e-01 -1.027264e-01
         vertex -3.800000e-03 1.351410e-01 -1.027264e-01
      endloop
   endfacet
   facet normal 0.000000e+00 -0.000000e+00 1.000000e+00
      outer loop
         vertex -3.800000e-03 1.199410e-01 -1.027264e-01
         vertex -3.800000e-03 1.351410e-01 -1.027264e-01
         vertex -4.800000e-03 1.341410e-01 -1.027264e-01
      endloop
   endfacet
   facet normal 0.000000e+00 0.000000e+00 1.000000e+00
      outer loop
         vertex -4.800000e-03 1.341410e-01 -1.027264e-01
         vertex -3.800000e-03 1.351410e-01 -1.027264e-01
         vertex -3.887156e-03 1.351372e-01 -1.027264e-01
      endloop
   endfacet
   facet normal 0.000000e+00 0.000000e+00 1.000000e+00
      outer loop
         vertex -4.800000e-03 1.341410e-01 -1.027264e-01
         vertex -3.887156e-03 1.351372e-01 -1.027264e-01
         vertex -3.973648e-03 1.351258e-01 -1.027264e-01
      endloop
   endfacet
   facet normal 0.000000e+00 0.000000e+00 1.000000e+00
      outer loop
         vertex -4.442788e-03 1.349070e-01 -1.027264e-01
         vertex -4.507107e-03 1.348481e-01 -1.027264e-01
         vertex -4.800000e-03 1.341410e-01 -1.027264e-01
      endloop
   endfacet
   facet normal 0.000000e+00 0.000000e+00 1.000000e+00
      outer loop
         vertex 4.739692e-03 1.344830e-01 -1.027264e-01
         vertex 4.800000e-03 1.341410e-01 -1.027264e-01
         vertex 4.765926e-03 1.343998e-01 -1.027264e-01
      endloop
   endfacet
   facet normal 0.000000e+00 0.000000e+00 1.000000e+00
      outer loop
         vertex 4.765926e-03 1.343998e-01 -1.027264e-01
         vertex 4.800000e-03 1.341410e-01 -1.027264e-01
         vertex 4.796195e-03 1.342282e-01 -1.027264e-01
      endloop
   endfacet
   facet normal 0.000000e+00 0.000000e+00 1.000000e+00
      outer loop
         vertex 4.765926e-03 1.343998e-01 -1.027264e-01
         vertex 4.796195e-03 1.342282e-01 -1.027264e-01
         vertex 4.784808e-03 1.343146e-01 -1.027264e-01
      endloop
   endfacet
   facet normal 0.000000e+00 0.000000e+00 1.000000e+00
      outer loop
         vertex -4.800000e-03 1.209410e-01 -1.027264e-01
         vertex -4.507107e-03 1.202339e-01 -1.027264e-01
         vertex -4.442788e-03 1.201750e-01 -1.027264e-01
      endloop
   endfacet
   facet normal 0.000000e+00 0.000000e+00 1.000000e+00
      outer loop
         vertex 4.058819e-03 1.199751e-01 -1.027264e-01
         vertex 4.142020e-03 1.200013e-01 -1.027264e-01
         vertex 4.800000e-03 1.209410e-01 -1.027264e-01
      endloop
   endfacet
   facet normal 0.000000e+00 0.000000e+00 1.000000e+00
      outer loop
         vertex 4.800000e-03 1.209410e-01 -1.027264e-01
         vertex 4.142020e-03 1.200013e-01 -1.027264e-01
         vertex 4.222618e-03 1.200347e-01 -1.027264e-01
      endloop
   endfacet
   facet normal 0.000000e+00 0.000000e+00 1.000000e+00
      outer loop
         vertex 4.800000e-03 1.209410e-01 -1.027264e-01
         vertex 4.222618e-03 1.200347e-01 -1.027264e-01
         vertex 4.300000e-03 1.200750e-01 -1.027264e-01
      endloop
   endfacet
   facet normal 0.000000e+00 0.000000e+00 1.000000e+00
      outer loop
         vertex 4.300000e-03 1.200750e-01 -1.027264e-01
         vertex 4.373576e-03 1.201219e-01 -1.027264e-01
         vertex 4.800000e-03 1.209410e-01 -1.027264e-01
      endloop
   endfacet
   facet normal 0.000000e+00 0.000000e+00 1.000000e+00
      outer loop
         vertex 4.800000e-03 1.209410e-01 -1.027264e-01
         vertex 4.373576e-03 1.201219e-01 -1.027264e-01
         vertex 4.442788e-03 1.201750e-01 -1.027264e-01
      endloop
   endfacet
   facet normal 0.000000e+00 0.000000e+00 1.000000e+00
      outer loop
         vertex 4.800000e-03 1.209410e-01 -1.027264e-01
         vertex 4.442788e-03 1.201750e-01 -1.027264e-01
         vertex 4.507107e-03 1.202339e-01 -1.027264e-01
      endloop
   endfacet
   facet normal 0.000000e+00 0.000000e+00 1.000000e+00
      outer loop
         vertex 4.739692e-03 1.205990e-01 -1.027264e-01
         vertex 4.765926e-03 1.206822e-01 -1.027264e-01
         vertex 4.784808e-03 1.207674e-01 -1.027264e-01
      endloop
   endfacet
   facet normal 0.000000e+00 0.000000e+00 1.000000e+00
      outer loop
         vertex -3.973648e-03 1.351258e-01 -1.027264e-01
         vertex -4.058819e-03 1.351069e-01 -1.027264e-01
         vertex -4.800000e-03 1.341410e-01 -1.027264e-01
      endloop
   endfacet
   facet normal 0.000000e+00 0.000000e+00 1.000000e+00
      outer loop
         vertex -4.800000e-03 1.341410e-01 -1.027264e-01
         vertex -4.058819e-03 1.351069e-01 -1.027264e-01
         vertex -4.142020e-03 1.350807e-01 -1.027264e-01
      endloop
   endfacet
   facet normal 0.000000e+00 0.000000e+00 1.000000e+00
      outer loop
         vertex -4.800000e-03 1.341410e-01 -1.027264e-01
         vertex -4.142020e-03 1.350807e-01 -1.027264e-01
         vertex -4.222618e-03 1.350473e-01 -1.027264e-01
      endloop
   endfacet
   facet normal 0.000000e+00 0.000000e+00 1.000000e+00
      outer loop
         vertex -4.222618e-03 1.350473e-01 -1.027264e-01
         vertex -4.300000e-03 1.350070e-01 -1.027264e-01
         vertex -4.800000e-03 1.341410e-01 -1.027264e-01
      endloop
   endfacet
   facet normal 0.000000e+00 0.000000e+00 1.000000e+00
      outer loop
         vertex -4.800000e-03 1.341410e-01 -1.027264e-01
         vertex -4.300000e-03 1.350070e-01 -1.027264e-01
         vertex -4.373576e-03 1.349601e-01 -1.027264e-01
      endloop
   endfacet
   facet normal 0.000000e+00 0.000000e+00 1.000000e+00
      outer loop
         vertex -4.800000e-03 1.341410e-01 -1.027264e-01
         vertex -4.373576e-03 1.349601e-01 -1.027264e-01
         vertex -4.442788e-03 1.349070e-01 -1.027264e-01
      endloop
   endfacet
   facet normal 0.000000e+00 0.000000e+00 1.000000e+00
      outer loop
         vertex -4.507107e-03 1.348481e-01 -1.027264e-01
         vertex -4.566045e-03 1.347838e-01 -1.027264e-01
         vertex -4.800000e-03 1.341410e-01 -1.027264e-01
      endloop
   endfacet
   facet normal 0.000000e+00 0.000000e+00 1.000000e+00
      outer loop
         vertex -4.800000e-03 1.341410e-01 -1.027264e-01
         vertex -4.566045e-03 1.347838e-01 -1.027264e-01
         vertex -4.619152e-03 1.347146e-01 -1.027264e-01
      endloop
   endfacet
   facet normal 0.000000e+00 0.000000e+00 1.000000e+00
      outer loop
         vertex -4.800000e-03 1.341410e-01 -1.027264e-01
         vertex -4.619152e-03 1.347146e-01 -1.027264e-01
         vertex -4.666025e-03 1.346410e-01 -1.027264e-01
      endloop
   endfacet
   facet normal 0.000000e+00 0.000000e+00 1.000000e+00
      outer loop
         vertex -4.666025e-03 1.346410e-01 -1.027264e-01
         vertex -4.706308e-03 1.345636e-01 -1.027264e-01
         vertex -4.800000e-03 1.341410e-01 -1.027264e-01
      endloop
   endfacet
   facet normal 0.000000e+00 0.000000e+00 1.000000e+00
      outer loop
         vertex -4.800000e-03 1.341410e-01 -1.027264e-01
         vertex -4.706308e-03 1.345636e-01 -1.027264e-01
         vertex -4.739692e-03 1.344830e-01 -1.027264e-01
      endloop
   endfacet
   facet normal 0.000000e+00 0.000000e+00 1.000000e+00
      outer loop
         vertex -4.800000e-03 1.341410e-01 -1.027264e-01
         vertex -4.739692e-03 1.344830e-01 -1.027264e-01
         vertex -4.796195e-03 1.342282e-01 -1.027264e-01
      endloop
   endfacet
   facet normal 0.000000e+00 0.000000e+00 1.000000e+00
      outer loop
         vertex -4.796195e-03 1.342282e-01 -1.027264e-01
         vertex -4.739692e-03 1.344830e-01 -1.027264e-01
         vertex -4.765926e-03 1.343998e-01 -1.027264e-01
      endloop
   endfacet
   facet normal 0.000000e+00 0.000000e+00 1.000000e+00
      outer loop
         vertex -4.796195e-03 1.342282e-01 -1.027264e-01
         vertex -4.765926e-03 1.343998e-01 -1.027264e-01
         vertex -4.784808e-03 1.343146e-01 -1.027264e-01
      endloop
   endfacet
   facet normal 0.000000e+00 0.000000e+00 1.000000e+00
      outer loop
         vertex -4.800000e-03 1.209410e-01 -1.027264e-01
         vertex -4.796195e-03 1.208538e-01 -1.027264e-01
         vertex -4.507107e-03 1.202339e-01 -1.027264e-01
      endloop
   endfacet
   facet normal 0.000000e+00 0.000000e+00 1.000000e+00
      outer loop
         vertex -4.507107e-03 1.202339e-01 -1.027264e-01
         vertex -4.796195e-03 1.208538e-01 -1.027264e-01
         vertex -4.784808e-03 1.207674e-01 -1.027264e-01
      endloop
   endfacet
   facet normal 0.000000e+00 0.000000e+00 1.000000e+00
      outer loop
         vertex -4.507107e-03 1.202339e-01 -1.027264e-01
         vertex -4.784808e-03 1.207674e-01 -1.027264e-01
         vertex -4.765926e-03 1.206822e-01 -1.027264e-01
      endloop
   endfacet
   facet normal -0.000000e+00 -0.000000e+00 1.000000e+00
      outer loop
         vertex -4.442788e-03 1.201750e-01 -1.027264e-01
         vertex -4.373576e-03 1.201219e-01 -1.027264e-01
         vertex -4.800000e-03 1.209410e-01 -1.027264e-01
      endloop
   endfacet
   facet normal 0.000000e+00 0.000000e+00 1.000000e+00
      outer loop
         vertex -4.800000e-03 1.209410e-01 -1.027264e-01
         vertex -4.373576e-03 1.201219e-01 -1.027264e-01
         vertex -4.300000e-03 1.200750e-01 -1.027264e-01
      endloop
   endfacet
   facet normal 0.000000e+00 0.000000e+00 1.000000e+00
      outer loop
         vertex -4.800000e-03 1.209410e-01 -1.027264e-01
         vertex -4.300000e-03 1.200750e-01 -1.027264e-01
         vertex -4.222618e-03 1.200347e-01 -1.027264e-01
      endloop
   endfacet
   facet normal -0.000000e+00 -0.000000e+00 1.000000e+00
      outer loop
         vertex -4.222618e-03 1.200347e-01 -1.027264e-01
         vertex -4.142020e-03 1.200013e-01 -1.027264e-01
         vertex -4.800000e-03 1.209410e-01 -1.027264e-01
      endloop
   endfacet
   facet normal 0.000000e+00 0.000000e+00 1.000000e+00
      outer loop
         vertex -4.800000e-03 1.209410e-01 -1.027264e-01
         vertex -4.142020e-03 1.200013e-01 -1.027264e-01
         vertex -4.058819e-03 1.199751e-01 -1.027264e-01
      endloop
   endfacet
   facet normal 0.000000e+00 0.000000e+00 1.000000e+00
      outer loop
         vertex -4.800000e-03 1.209410e-01 -1.027264e-01
         vertex -4.058819e-03 1.199751e-01 -1.027264e-01
         vertex -3.973648e-03 1.199562e-01 -1.027264e-01
      endloop
   endfacet
   facet normal 0.000000e+00 0.000000e+00 1.000000e+00
      outer loop
         vertex 4.507107e-03 1.202339e-01 -1.027264e-01
         vertex 4.566045e-03 1.202982e-01 -1.027264e-01
         vertex 4.800000e-03 1.209410e-01 -1.027264e-01
      endloop
   endfacet
   facet normal 0.000000e+00 0.000000e+00 1.000000e+00
      outer loop
         vertex 4.800000e-03 1.209410e-01 -1.027264e-01
         vertex 4.566045e-03 1.202982e-01 -1.027264e-01
         vertex 4.619152e-03 1.203674e-01 -1.027264e-01
      endloop
   endfacet
   facet normal 0.000000e+00 0.000000e+00 1.000000e+00
      outer loop
         vertex 4.800000e-03 1.209410e-01 -1.027264e-01
         vertex 4.619152e-03 1.203674e-01 -1.027264e-01
         vertex 4.666025e-03 1.204410e-01 -1.027264e-01
      endloop
   endfacet
   facet normal 0.000000e+00 0.000000e+00 1.000000e+00
      outer loop
         vertex 4.666025e-03 1.204410e-01 -1.027264e-01
         vertex 4.706308e-03 1.205184e-01 -1.027264e-01
         vertex 4.800000e-03 1.209410e-01 -1.027264e-01
      endloop
   endfacet
   facet normal 0.000000e+00 0.000000e+00 1.000000e+00
      outer loop
         vertex 4.800000e-03 1.209410e-01 -1.027264e-01
         vertex 4.706308e-03 1.205184e-01 -1.027264e-01
         vertex 4.739692e-03 1.205990e-01 -1.027264e-01
      endloop
   endfacet
   facet normal 0.000000e+00 0.000000e+00 1.000000e+00
      outer loop
         vertex 4.800000e-03 1.209410e-01 -1.027264e-01
         vertex 4.739692e-03 1.205990e-01 -1.027264e-01
         vertex 4.796195e-03 1.208538e-01 -1.027264e-01
      endloop
   endfacet
   facet normal 0.000000e+00 0.000000e+00 1.000000e+00
      outer loop
         vertex 4.796195e-03 1.208538e-01 -1.027264e-01
         vertex 4.739692e-03 1.205990e-01 -1.027264e-01
         vertex 4.784808e-03 1.207674e-01 -1.027264e-01
      endloop
   endfacet
   facet normal -0.000000e+00 -0.000000e+00 1.000000e+00
      outer loop
         vertex -4.706308e-03 1.205184e-01 -1.027264e-01
         vertex -4.666025e-03 1.204410e-01 -1.027264e-01
         vertex -4.739692e-03 1.205990e-01 -1.027264e-01
      endloop
   endfacet
   facet normal 0.000000e+00 0.000000e+00 1.000000e+00
      outer loop
         vertex -4.739692e-03 1.205990e-01 -1.027264e-01
         vertex -4.666025e-03 1.204410e-01 -1.027264e-01
         vertex -4.619152e-03 1.203674e-01 -1.027264e-01
      endloop
   endfacet
   facet normal -0.000000e+00 -0.000000e+00 1.000000e+00
      outer loop
         vertex -4.739692e-03 1.205990e-01 -1.027264e-01
         vertex -4.619152e-03 1.203674e-01 -1.027264e-01
         vertex -4.765926e-03 1.206822e-01 -1.027264e-01
      endloop
   endfacet
   facet normal 0.000000e+00 0.000000e+00 1.000000e+00
      outer loop
         vertex -4.765926e-03 1.206822e-01 -1.027264e-01
         vertex -4.619152e-03 1.203674e-01 -1.027264e-01
         vertex -4.566045e-03 1.202982e-01 -1.027264e-01
      endloop
   endfacet
   facet normal 0.000000e+00 0.000000e+00 1.000000e+00
      outer loop
         vertex -4.765926e-03 1.206822e-01 -1.027264e-01
         vertex -4.566045e-03 1.202982e-01 -1.027264e-01
         vertex -4.507107e-03 1.202339e-01 -1.027264e-01
      endloop
   endfacet
   facet normal -9.990482e-01 4.361975e-02 0.000000e+00
      outer loop
         vertex -4.800000e-03 1.341410e-01 -1.500000e-01
         vertex -4.800000e-03 1.341410e-01 -1.027264e-01
         vertex -4.796195e-03 1.342282e-01 -1.027264e-01
      endloop
   endfacet
   facet normal -9.990482e-01 4.361975e-02 0.000000e+00
      outer loop
         vertex -4.800000e-03 1.341410e-01 -1.500000e-01
         vertex -4.796195e-03 1.342282e-01 -1.027264e-01
         vertex -4.796195e-03 1.342282e-01 -1.500000e-01
      endloop
   endfacet
   facet normal -9.914432e-01 1.305390e-01 0.000000e+00
      outer loop
         vertex -4.796195e-03 1.342282e-01 -1.500000e-01
         vertex -4.796195e-03 1.342282e-01 -1.027264e-01
         vertex -4.784808e-03 1.343146e-01 -1.027264e-01
      endloop
   endfacet
   facet normal -9.914432e-01 1.305390e-01 0.000000e+00
      outer loop
         vertex -4.796195e-03 1.342282e-01 -1.500000e-01
         vertex -4.784808e-03 1.343146e-01 -1.027264e-01
         vertex -4.784808e-03 1.343146e-01 -1.500000e-01
      endloop
   endfacet
   facet normal -9.762990e-01 2.164263e-01 0.000000e+00
      outer loop
         vertex -4.784808e-03 1.343146e-01 -1.500000e-01
         vertex -4.784808e-03 1.343146e-01 -1.027264e-01
         vertex -4.765926e-03 1.343998e-01 -1.027264e-01
      endloop
   endfacet
   facet normal -9.762990e-01 2.164263e-01 0.000000e+00
      outer loop
         vertex -4.784808e-03 1.343146e-01 -1.500000e-01
         vertex -4.765926e-03 1.343998e-01 -1.027264e-01
         vertex -4.765926e-03 1.343998e-01 -1.500000e-01
      endloop
   endfacet
   facet normal -9.537232e-01 3.006858e-01 0.000000e+00
      outer loop
         vertex -4.765926e-03 1.343998e-01 -1.500000e-01
         vertex -4.765926e-03 1.343998e-01 -1.027264e-01
         vertex -4.739692e-03 1.344830e-01 -1.027264e-01
      endloop
   endfacet
   facet normal -9.537232e-01 3.006858e-01 0.000000e+00
      outer loop
         vertex -4.765926e-03 1.343998e-01 -1.500000e-01
         vertex -4.739692e-03 1.344830e-01 -1.027264e-01
         vertex -4.739692e-03 1.344830e-01 -1.500000e-01
      endloop
   endfacet
   facet normal -9.238841e-01 3.826725e-01 0.000000e+00
      outer loop
         vertex -4.739692e-03 1.344830e-01 -1.500000e-01
         vertex -4.739692e-03 1.344830e-01 -1.027264e-01
         vertex -4.706308e-03 1.345636e-01 -1.027264e-01
      endloop
   endfacet
   facet normal -9.238841e-01 3.826725e-01 0.000000e+00
      outer loop
         vertex -4.739692e-03 1.344830e-01 -1.500000e-01
         vertex -4.706308e-03 1.345636e-01 -1.027264e-01
         vertex -4.706308e-03 1.345636e-01 -1.500000e-01
      endloop
   endfacet
   facet normal -8.870103e-01 4.617497e-01 0.000000e+00
      outer loop
         vertex -4.706308e-03 1.345636e-01 -1.500000e-01
         vertex -4.706308e-03 1.345636e-01 -1.027264e-01
         vertex -4.666025e-03 1.346410e-01 -1.027264e-01
      endloop
   endfacet
   facet normal -8.870103e-01 4.617497e-01 0.000000e+00
      outer loop
         vertex -4.706308e-03 1.345636e-01 -1.500000e-01
         vertex -4.666025e-03 1.346410e-01 -1.027264e-01
         vertex -4.666025e-03 1.346410e-01 -1.500000e-01
      endloop
   endfacet
   facet normal -8.433598e-01 5.373493e-01 0.000000e+00
      outer loop
         vertex -4.666025e-03 1.346410e-01 -1.500000e-01
         vertex -4.666025e-03 1.346410e-01 -1.027264e-01
         vertex -4.619152e-03 1.347146e-01 -1.027264e-01
      endloop
   endfacet
   facet normal -8.433598e-01 5.373493e-01 0.000000e+00
      outer loop
         vertex -4.666025e-03 1.346410e-01 -1.500000e-01
         vertex -4.619152e-03 1.347146e-01 -1.027264e-01
         vertex -4.619152e-03 1.347146e-01 -1.500000e-01
      endloop
   endfacet
   facet normal -7.933752e-01 6.087329e-01 0.000000e+00
      outer loop
         vertex -4.619152e-03 1.347146e-01 -1.500000e-01
         vertex -4.619152e-03 1.347146e-01 -1.027264e-01
         vertex -4.566045e-03 1.347838e-01 -1.027264e-01
      endloop
   endfacet
   facet normal -7.933752e-01 6.087329e-01 0.000000e+00
      outer loop
         vertex -4.619152e-03 1.347146e-01 -1.500000e-01
         vertex -4.566045e-03 1.347838e-01 -1.027264e-01
         vertex -4.566045e-03 1.347838e-01 -1.500000e-01
      endloop
   endfacet
   facet normal -7.372463e-01 6.756241e-01 0.000000e+00
      outer loop
         vertex -4.566045e-03 1.347838e-01 -1.500000e-01
         vertex -4.566045e-03 1.347838e-01 -1.027264e-01
         vertex -4.507107e-03 1.348481e-01 -1.027264e-01
      endloop
   endfacet
   facet normal -7.372463e-01 6.756241e-01 0.000000e+00
      outer loop
         vertex -4.566045e-03 1.347838e-01 -1.500000e-01
         vertex -4.507107e-03 1.348481e-01 -1.027264e-01
         vertex -4.507107e-03 1.348481e-01 -1.500000e-01
      endloop
   endfacet
   facet normal -6.755689e-01 7.372968e-01 0.000000e+00
      outer loop
         vertex -4.507107e-03 1.348481e-01 -1.500000e-01
         vertex -4.507107e-03 1.348481e-01 -1.027264e-01
         vertex -4.442788e-03 1.349070e-01 -1.027264e-01
      endloop
   endfacet
   facet normal -6.755689e-01 7.372968e-01 0.000000e+00
      outer loop
         vertex -4.507107e-03 1.348481e-01 -1.500000e-01
         vertex -4.442788e-03 1.349070e-01 -1.027264e-01
         vertex -4.442788e-03 1.349070e-01 -1.500000e-01
      endloop
   endfacet
   facet normal -6.087621e-01 7.933529e-01 0.000000e+00
      outer loop
         vertex -4.442788e-03 1.349070e-01 -1.500000e-01
         vertex -4.442788e-03 1.349070e-01 -1.027264e-01
         vertex -4.373576e-03 1.349601e-01 -1.027264e-01
      endloop
   endfacet
   facet normal -6.087621e-01 7.933529e-01 0.000000e+00
      outer loop
         vertex -4.442788e-03 1.349070e-01 -1.500000e-01
         vertex -4.373576e-03 1.349601e-01 -1.027264e-01
         vertex -4.373576e-03 1.349601e-01 -1.500000e-01
      endloop
   endfacet
   facet normal -5.373465e-01 8.433616e-01 0.000000e+00
      outer loop
         vertex -4.373576e-03 1.349601e-01 -1.500000e-01
         vertex -4.373576e-03 1.349601e-01 -1.027264e-01
         vertex -4.300000e-03 1.350070e-01 -1.027264e-01
      endloop
   endfacet
   facet normal -5.373465e-01 8.433616e-01 0.000000e+00
      outer loop
         vertex -4.373576e-03 1.349601e-01 -1.500000e-01
         vertex -4.300000e-03 1.350070e-01 -1.027264e-01
         vertex -4.300000e-03 1.350070e-01 -1.500000e-01
      endloop
   endfacet
   facet normal -4.617077e-01 8.870321e-01 0.000000e+00
      outer loop
         vertex -4.300000e-03 1.350070e-01 -1.500000e-01
         vertex -4.300000e-03 1.350070e-01 -1.027264e-01
         vertex -4.222618e-03 1.350473e-01 -1.027264e-01
      endloop
   endfacet
   facet normal -4.617077e-01 8.870321e-01 0.000000e+00
      outer loop
         vertex -4.300000e-03 1.350070e-01 -1.500000e-01
         vertex -4.222618e-03 1.350473e-01 -1.027264e-01
         vertex -4.222618e-03 1.350473e-01 -1.500000e-01
      endloop
   endfacet
   facet normal -3.827685e-01 9.238443e-01 0.000000e+00
      outer loop
         vertex -4.222618e-03 1.350473e-01 -1.500000e-01
         vertex -4.222618e-03 1.350473e-01 -1.027264e-01
         vertex -4.142020e-03 1.350807e-01 -1.027264e-01
      endloop
   endfacet
   facet normal -3.827685e-01 9.238443e-01 0.000000e+00
      outer loop
         vertex -4.222618e-03 1.350473e-01 -1.500000e-01
         vertex -4.142020e-03 1.350807e-01 -1.027264e-01
         vertex -4.142020e-03 1.350807e-01 -1.500000e-01
      endloop
   endfacet
   facet normal -3.006311e-01 9.537405e-01 0.000000e+00
      outer loop
         vertex -4.142020e-03 1.350807e-01 -1.500000e-01
         vertex -4.142020e-03 1.350807e-01 -1.027264e-01
         vertex -4.058819e-03 1.351069e-01 -1.027264e-01
      endloop
   endfacet
   facet normal -3.006311e-01 9.537405e-01 0.000000e+00
      outer loop
         vertex -4.142020e-03 1.350807e-01 -1.500000e-01
         vertex -4.058819e-03 1.351069e-01 -1.027264e-01
         vertex -4.058819e-03 1.351069e-01 -1.500000e-01
      endloop
   endfacet
   facet normal -2.164150e-01 9.763015e-01 0.000000e+00
      outer loop
         vertex -4.058819e-03 1.351069e-01 -1.500000e-01
         vertex -4.058819e-03 1.351069e-01 -1.027264e-01
         vertex -3.973648e-03 1.351258e-01 -1.027264e-01
      endloop
   endfacet
   facet normal -2.164150e-01 9.763015e-01 0.000000e+00
      outer loop
         vertex -4.058819e-03 1.351069e-01 -1.500000e-01
         vertex -3.973648e-03 1.351258e-01 -1.027264e-01
         vertex -3.973648e-03 1.351258e-01 -1.500000e-01
      endloop
   endfacet
   facet normal -1.306668e-01 9.914263e-01 0.000000e+00
      outer loop
         vertex -3.973648e-03 1.351258e-01 -1.500000e-01
         vertex -3.973648e-03 1.351258e-01 -1.027264e-01
         vertex -3.887156e-03 1.351372e-01 -1.027264e-01
      endloop
   endfacet
   facet normal -1.306668e-01 9.914263e-01 0.000000e+00
      outer loop
         vertex -3.973648e-03 1.351258e-01 -1.500000e-01
         vertex -3.887156e-03 1.351372e-01 -1.027264e-01
         vertex -3.887156e-03 1.351372e-01 -1.500000e-01
      endloop
   endfacet
   facet normal -4.355640e-02 9.990510e-01 0.000000e+00
      outer loop
         vertex -3.887156e-03 1.351372e-01 -1.500000e-01
         vertex -3.887156e-03 1.351372e-01 -1.027264e-01
         vertex -3.800000e-03 1.351410e-01 -1.027264e-01
      endloop
   endfacet
   facet normal -4.355640e-02 9.990510e-01 0.000000e+00
      outer loop
         vertex -3.887156e-03 1.351372e-01 -1.500000e-01
         vertex -3.800000e-03 1.351410e-01 -1.027264e-01
         vertex -3.800000e-03 1.351410e-01 -1.500000e-01
      endloop
   endfacet
   facet normal -4.355640e-02 -9.990510e-01 0.000000e+00
      outer loop
         vertex -3.800000e-03 1.199410e-01 -1.500000e-01
         vertex -3.800000e-03 1.199410e-01 -1.027264e-01
         vertex -3.887156e-03 1.199448e-01 -1.027264e-01
      endloop
   endfacet
   facet normal -4.355640e-02 -9.990510e-01 0.000000e+00
      outer loop
         vertex -3.800000e-03 1.199410e-01 -1.500000e-01
         vertex -3.887156e-03 1.199448e-01 -1.027264e-01
         vertex -3.887156e-03 1.199448e-01 -1.500000e-01
      endloop
   endfacet
   facet normal -1.305829e-01 -9.914374e-01 0.000000e+00
      outer loop
         vertex -3.887156e-03 1.199448e-01 -1.500000e-01
         vertex -3.887156e-03 1.199448e-01 -1.027264e-01
         vertex -3.973648e-03 1.199562e-01 -1.027264e-01
      endloop
   endfacet
   facet normal -1.305829e-01 -9.914374e-01 0.000000e+00
      outer loop
         vertex -3.887156e-03 1.199448e-01 -1.500000e-01
         vertex -3.973648e-03 1.199562e-01 -1.027264e-01
         vertex -3.973648e-03 1.199562e-01 -1.500000e-01
      endloop
   endfacet
   facet normal -2.164150e-01 -9.763015e-01 0.000000e+00
      outer loop
         vertex -3.973648e-03 1.199562e-01 -1.500000e-01
         vertex -3.973648e-03 1.199562e-01 -1.027264e-01
         vertex -4.058819e-03 1.199751e-01 -1.027264e-01
      endloop
   endfacet
   facet normal -2.164150e-01 -9.763015e-01 0.000000e+00
      outer loop
         vertex -3.973648e-03 1.199562e-01 -1.500000e-01
         vertex -4.058819e-03 1.199751e-01 -1.027264e-01
         vertex -4.058819e-03 1.199751e-01 -1.500000e-01
      endloop
   endfacet
   facet normal -3.007088e-01 -9.537160e-01 0.000000e+00
      outer loop
         vertex -4.058819e-03 1.199751e-01 -1.500000e-01
         vertex -4.058819e-03 1.199751e-01 -1.027264e-01
         vertex -4.142020e-03 1.200013e-01 -1.027264e-01
      endloop
   endfacet
   facet normal -3.007088e-01 -9.537160e-01 0.000000e+00
      outer loop
         vertex -4.058819e-03 1.199751e-01 -1.500000e-01
         vertex -4.142020e-03 1.200013e-01 -1.027264e-01
         vertex -4.142020e-03 1.200013e-01 -1.500000e-01
      endloop
   endfacet
   facet normal -3.826956e-01 -9.238745e-01 0.000000e+00
      outer loop
         vertex -4.142020e-03 1.200013e-01 -1.500000e-01
         vertex -4.142020e-03 1.200013e-01 -1.027264e-01
         vertex -4.222618e-03 1.200347e-01 -1.027264e-01
      endloop
   endfacet
   facet normal -3.826956e-01 -9.238745e-01 0.000000e+00
      outer loop
         vertex -4.142020e-03 1.200013e-01 -1.500000e-01
         vertex -4.222618e-03 1.200347e-01 -1.027264e-01
         vertex -4.222618e-03 1.200347e-01 -1.500000e-01
      endloop
   endfacet
   facet normal -4.617077e-01 -8.870321e-01 0.000000e+00
      outer loop
         vertex -4.222618e-03 1.200347e-01 -1.500000e-01
         vertex -4.222618e-03 1.200347e-01 -1.027264e-01
         vertex -4.300000e-03 1.200750e-01 -1.027264e-01
      endloop
   endfacet
   facet normal -4.617077e-01 -8.870321e-01 0.000000e+00
      outer loop
         vertex -4.222618e-03 1.200347e-01 -1.500000e-01
         vertex -4.300000e-03 1.200750e-01 -1.027264e-01
         vertex -4.300000e-03 1.200750e-01 -1.500000e-01
      endloop
   endfacet
   facet normal -5.373465e-01 -8.433616e-01 0.000000e+00
      outer loop
         vertex -4.300000e-03 1.200750e-01 -1.500000e-01
         vertex -4.300000e-03 1.200750e-01 -1.027264e-01
         vertex -4.373576e-03 1.201219e-01 -1.027264e-01
      endloop
   endfacet
   facet normal -5.373465e-01 -8.433616e-01 0.000000e+00
      outer loop
         vertex -4.300000e-03 1.200750e-01 -1.500000e-01
         vertex -4.373576e-03 1.201219e-01 -1.027264e-01
         vertex -4.373576e-03 1.201219e-01 -1.500000e-01
      endloop
   endfacet
   facet normal -6.087083e-01 -7.933941e-01 0.000000e+00
      outer loop
         vertex -4.373576e-03 1.201219e-01 -1.500000e-01
         vertex -4.373576e-03 1.201219e-01 -1.027264e-01
         vertex -4.442788e-03 1.201750e-01 -1.027264e-01
      endloop
   endfacet
   facet normal -6.087083e-01 -7.933941e-01 0.000000e+00
      outer loop
         vertex -4.373576e-03 1.201219e-01 -1.500000e-01
         vertex -4.442788e-03 1.201750e-01 -1.027264e-01
         vertex -4.442788e-03 1.201750e-01 -1.500000e-01
      endloop
   endfacet
   facet normal -6.756154e-01 -7.372543e-01 0.000000e+00
      outer loop
         vertex -4.442788e-03 1.201750e-01 -1.500000e-01
         vertex -4.442788e-03 1.201750e-01 -1.027264e-01
         vertex -4.507107e-03 1.202339e-01 -1.027264e-01
      endloop
   endfacet
   facet normal -6.756154e-01 -7.372543e-01 0.000000e+00
      outer loop
         vertex -4.442788e-03 1.201750e-01 -1.500000e-01
         vertex -4.507107e-03 1.202339e-01 -1.027264e-01
         vertex -4.507107e-03 1.202339e-01 -1.500000e-01
      endloop
   endfacet
   facet normal -7.372853e-01 -6.755815e-01 0.000000e+00
      outer loop
         vertex -4.507107e-03 1.202339e-01 -1.500000e-01
         vertex -4.507107e-03 1.202339e-01 -1.027264e-01
         vertex -4.566045e-03 1.202982e-01 -1.027264e-01
      endloop
   endfacet
   facet normal -7.372853e-01 -6.755815e-01 0.000000e+00
      outer loop
         vertex -4.507107e-03 1.202339e-01 -1.500000e-01
         vertex -4.566045e-03 1.202982e-01 -1.027264e-01
         vertex -4.566045e-03 1.202982e-01 -1.500000e-01
      endloop
   endfacet
   facet normal -7.933436e-01 -6.087742e-01 0.000000e+00
      outer loop
         vertex -4.566045e-03 1.202982e-01 -1.500000e-01
         vertex -4.566045e-03 1.202982e-01 -1.027264e-01
         vertex -4.619152e-03 1.203674e-01 -1.027264e-01
      endloop
   endfacet
   facet normal -7.933436e-01 -6.087742e-01 0.000000e+00
      outer loop
         vertex -4.566045e-03 1.202982e-01 -1.500000e-01
         vertex -4.619152e-03 1.203674e-01 -1.027264e-01
         vertex -4.619152e-03 1.203674e-01 -1.500000e-01
      endloop
   endfacet
   facet normal -8.433844e-01 -5.373106e-01 0.000000e+00
      outer loop
         vertex -4.619152e-03 1.203674e-01 -1.500000e-01
         vertex -4.619152e-03 1.203674e-01 -1.027264e-01
         vertex -4.666025e-03 1.204410e-01 -1.027264e-01
      endloop
   endfacet
   facet normal -8.433844e-01 -5.373106e-01 0.000000e+00
      outer loop
         vertex -4.619152e-03 1.203674e-01 -1.500000e-01
         vertex -4.666025e-03 1.204410e-01 -1.027264e-01
         vertex -4.666025e-03 1.204410e-01 -1.500000e-01
      endloop
   endfacet
   facet normal -8.870103e-01 -4.617497e-01 0.000000e+00
      outer loop
         vertex -4.666025e-03 1.204410e-01 -1.500000e-01
         vertex -4.666025e-03 1.204410e-01 -1.027264e-01
         vertex -4.706308e-03 1.205184e-01 -1.027264e-01
      endloop
   endfacet
   facet normal -8.870103e-01 -4.617497e-01 0.000000e+00
      outer loop
         vertex -4.666025e-03 1.204410e-01 -1.500000e-01
         vertex -4.706308e-03 1.205184e-01 -1.027264e-01
         vertex -4.706308e-03 1.205184e-01 -1.500000e-01
      endloop
   endfacet
   facet normal -9.238841e-01 -3.826725e-01 0.000000e+00
      outer loop
         vertex -4.706308e-03 1.205184e-01 -1.500000e-01
         vertex -4.706308e-03 1.205184e-01 -1.027264e-01
         vertex -4.739692e-03 1.205990e-01 -1.027264e-01
      endloop
   endfacet
   facet normal -9.238841e-01 -3.826725e-01 0.000000e+00
      outer loop
         vertex -4.706308e-03 1.205184e-01 -1.500000e-01
         vertex -4.739692e-03 1.205990e-01 -1.027264e-01
         vertex -4.739692e-03 1.205990e-01 -1.500000e-01
      endloop
   endfacet
   facet normal -9.537155e-01 -3.007103e-01 0.000000e+00
      outer loop
         vertex -4.739692e-03 1.205990e-01 -1.500000e-01
         vertex -4.739692e-03 1.205990e-01 -1.027264e-01
         vertex -4.765926e-03 1.206822e-01 -1.027264e-01
      endloop
   endfacet
   facet normal -9.537155e-01 -3.007103e-01 0.000000e+00
      outer loop
         vertex -4.739692e-03 1.205990e-01 -1.500000e-01
         vertex -4.765926e-03 1.206822e-01 -1.027264e-01
         vertex -4.765926e-03 1.206822e-01 -1.500000e-01
      endloop
   endfacet
   facet normal -9.762990e-01 -2.164263e-01 0.000000e+00
      outer loop
         vertex -4.765926e-03 1.206822e-01 -1.500000e-01
         vertex -4.765926e-03 1.206822e-01 -1.027264e-01
         vertex -4.784808e-03 1.207674e-01 -1.027264e-01
      endloop
   endfacet
   facet normal -9.762990e-01 -2.164263e-01 0.000000e+00
      outer loop
         vertex -4.765926e-03 1.206822e-01 -1.500000e-01
         vertex -4.784808e-03 1.207674e-01 -1.027264e-01
         vertex -4.784808e-03 1.207674e-01 -1.500000e-01
      endloop
   endfacet
   facet normal -9.914432e-01 -1.305390e-01 0.000000e+00
      outer loop
         vertex -4.784808e-03 1.207674e-01 -1.500000e-01
         vertex -4.784808e-03 1.207674e-01 -1.027264e-01
         vertex -4.796195e-03 1.208538e-01 -1.027264e-01
      endloop
   endfacet
   facet normal -9.914432e-01 -1.305390e-01 0.000000e+00
      outer loop
         vertex -4.784808e-03 1.207674e-01 -1.500000e-01
         vertex -4.796195e-03 1.208538e-01 -1.027264e-01
         vertex -4.796195e-03 1.208538e-01 -1.500000e-01
      endloop
   endfacet
   facet normal -9.990482e-01 -4.361975e-02 0.000000e+00
      outer loop
         vertex -4.796195e-03 1.208538e-01 -1.500000e-01
         vertex -4.796195e-03 1.208538e-01 -1.027264e-01
         vertex -4.800000e-03 1.209410e-01 -1.027264e-01
      endloop
   endfacet
   facet normal -9.990482e-01 -4.361975e-02 0.000000e+00
      outer loop
         vertex -4.796195e-03 1.208538e-01 -1.500000e-01
         vertex -4.800000e-03 1.209410e-01 -1.027264e-01
         vertex -4.800000e-03 1.209410e-01 -1.500000e-01
      endloop
   endfacet
   facet normal 9.990482e-01 -4.361975e-02 0.000000e+00
      outer loop
         vertex 4.800000e-03 1.209410e-01 -1.500000e-01
         vertex 4.800000e-03 1.209410e-01 -1.027264e-01
         vertex 4.796195e-03 1.208538e-01 -1.027264e-01
      endloop
   endfacet
   facet normal 9.990482e-01 -4.361975e-02 0.000000e+00
      outer loop
         vertex 4.800000e-03 1.209410e-01 -1.500000e-01
         vertex 4.796195e-03 1.208538e-01 -1.027264e-01
         vertex 4.796195e-03 1.208538e-01 -1.500000e-01
      endloop
   endfacet
   facet normal 9.914432e-01 -1.305390e-01 0.000000e+00
      outer loop
         vertex 4.796195e-03 1.208538e-01 -1.500000e-01
         vertex 4.796195e-03 1.208538e-01 -1.027264e-01
         vertex 4.784808e-03 1.207674e-01 -1.027264e-01
      endloop
   endfacet
   facet normal 9.914432e-01 -1.305390e-01 0.000000e+00
      outer loop
         vertex 4.796195e-03 1.208538e-01 -1.500000e-01
         vertex 4.784808e-03 1.207674e-01 -1.027264e-01
         vertex 4.784808e-03 1.207674e-01 -1.500000e-01
      endloop
   endfacet
   facet normal 9.762990e-01 -2.164263e-01 0.000000e+00
      outer loop
         vertex 4.784808e-03 1.207674e-01 -1.500000e-01
         vertex 4.784808e-03 1.207674e-01 -1.027264e-01
         vertex 4.765926e-03 1.206822e-01 -1.027264e-01
      endloop
   endfacet
   facet normal 9.762990e-01 -2.164263e-01 0.000000e+00
      outer loop
         vertex 4.784808e-03 1.207674e-01 -1.500000e-01
         vertex 4.765926e-03 1.206822e-01 -1.027264e-01
         vertex 4.765926e-03 1.206822e-01 -1.500000e-01
      endloop
   endfacet
   facet normal 9.537155e-01 -3.007103e-01 0.000000e+00
      outer loop
         vertex 4.765926e-03 1.206822e-01 -1.500000e-01
         vertex 4.765926e-03 1.206822e-01 -1.027264e-01
         vertex 4.739692e-03 1.205990e-01 -1.027264e-01
      endloop
   endfacet
   facet normal 9.537155e-01 -3.007103e-01 0.000000e+00
      outer loop
         vertex 4.765926e-03 1.206822e-01 -1.500000e-01
         vertex 4.739692e-03 1.205990e-01 -1.027264e-01
         vertex 4.739692e-03 1.205990e-01 -1.500000e-01
      endloop
   endfacet
   facet normal 9.238841e-01 -3.826725e-01 0.000000e+00
      outer loop
         vertex 4.739692e-03 1.205990e-01 -1.500000e-01
         vertex 4.739692e-03 1.205990e-01 -1.027264e-01
         vertex 4.706308e-03 1.205184e-01 -1.027264e-01
      endloop
   endfacet
   facet normal 9.238841e-01 -3.826725e-01 0.000000e+00
      outer loop
         vertex 4.739692e-03 1.205990e-01 -1.500000e-01
         vertex 4.706308e-03 1.205184e-01 -1.027264e-01
         vertex 4.706308e-03 1.205184e-01 -1.500000e-01
      endloop
   endfacet
   facet normal 8.870103e-01 -4.617497e-01 0.000000e+00
      outer loop
         vertex 4.706308e-03 1.205184e-01 -1.500000e-01
         vertex 4.706308e-03 1.205184e-01 -1.027264e-01
         vertex 4.666025e-03 1.204410e-01 -1.027264e-01
      endloop
   endfacet
   facet normal 8.870103e-01 -4.617497e-01 0.000000e+00
      outer loop
         vertex 4.706308e-03 1.205184e-01 -1.500000e-01
         vertex 4.666025e-03 1.204410e-01 -1.027264e-01
         vertex 4.666025e-03 1.204410e-01 -1.500000e-01
      endloop
   endfacet
   facet normal 8.433844e-01 -5.373106e-01 0.000000e+00
      outer loop
         vertex 4.666025e-03 1.204410e-01 -1.500000e-01
         vertex 4.666025e-03 1.204410e-01 -1.027264e-01
         vertex 4.619152e-03 1.203674e-01 -1.027264e-01
      endloop
   endfacet
   facet normal 8.433844e-01 -5.373106e-01 0.000000e+00
      outer loop
         vertex 4.666025e-03 1.204410e-01 -1.500000e-01
         vertex 4.619152e-03 1.203674e-01 -1.027264e-01
         vertex 4.619152e-03 1.203674e-01 -1.500000e-01
      endloop
   endfacet
   facet normal 7.933436e-01 -6.087742e-01 0.000000e+00
      outer loop
         vertex 4.619152e-03 1.203674e-01 -1.500000e-01
         vertex 4.619152e-03 1.203674e-01 -1.027264e-01
         vertex 4.566045e-03 1.202982e-01 -1.027264e-01
      endloop
   endfacet
   facet normal 7.933436e-01 -6.087742e-01 0.000000e+00
      outer loop
         vertex 4.619152e-03 1.203674e-01 -1.500000e-01
         vertex 4.566045e-03 1.202982e-01 -1.027264e-01
         vertex 4.566045e-03 1.202982e-01 -1.500000e-01
      endloop
   endfacet
   facet normal 7.372853e-01 -6.755815e-01 0.000000e+00
      outer loop
         vertex 4.566045e-03 1.202982e-01 -1.500000e-01
         vertex 4.566045e-03 1.202982e-01 -1.027264e-01
         vertex 4.507107e-03 1.202339e-01 -1.027264e-01
      endloop
   endfacet
   facet normal 7.372853e-01 -6.755815e-01 0.000000e+00
      outer loop
         vertex 4.566045e-03 1.202982e-01 -1.500000e-01
         vertex 4.507107e-03 1.202339e-01 -1.027264e-01
         vertex 4.507107e-03 1.202339e-01 -1.500000e-01
      endloop
   endfacet
   facet normal 6.756154e-01 -7.372543e-01 0.000000e+00
      outer loop
         vertex 4.507107e-03 1.202339e-01 -1.500000e-01
         vertex 4.507107e-03 1.202339e-01 -1.027264e-01
         vertex 4.442788e-03 1.201750e-01 -1.027264e-01
      endloop
   endfacet
   facet normal 6.756154e-01 -7.372543e-01 0.000000e+00
      outer loop
         vertex 4.507107e-03 1.202339e-01 -1.500000e-01
         vertex 4.442788e-03 1.201750e-01 -1.027264e-01
         vertex 4.442788e-03 1.201750e-01 -1.500000e-01
      endloop
   endfacet
   facet normal 6.087083e-01 -7.933941e-01 0.000000e+00
      outer loop
         vertex 4.442788e-03 1.201750e-01 -1.500000e-01
         vertex 4.442788e-03 1.201750e-01 -1.027264e-01
         vertex 4.373576e-03 1.201219e-01 -1.027264e-01
      endloop
   endfacet
   facet normal 6.087083e-01 -7.933941e-01 0.000000e+00
      outer loop
         vertex 4.442788e-03 1.201750e-01 -1.500000e-01
         vertex 4.373576e-03 1.201219e-01 -1.027264e-01
         vertex 4.373576e-03 1.201219e-01 -1.500000e-01
      endloop
   endfacet
   facet normal 5.373465e-01 -8.433616e-01 0.000000e+00
      outer loop
         vertex 4.373576e-03 1.201219e-01 -1.500000e-01
         vertex 4.373576e-03 1.201219e-01 -1.027264e-01
         vertex 4.300000e-03 1.200750e-01 -1.027264e-01
      endloop
   endfacet
   facet normal 5.373465e-01 -8.433616e-01 0.000000e+00
      outer loop
         vertex 4.373576e-03 1.201219e-01 -1.500000e-01
         vertex 4.300000e-03 1.200750e-01 -1.027264e-01
         vertex 4.300000e-03 1.200750e-01 -1.500000e-01
      endloop
   endfacet
   facet normal 4.617077e-01 -8.870321e-01 0.000000e+00
      outer loop
         vertex 4.300000e-03 1.200750e-01 -1.500000e-01
         vertex 4.300000e-03 1.200750e-01 -1.027264e-01
         vertex 4.222618e-03 1.200347e-01 -1.027264e-01
      endloop
   endfacet
   facet normal 4.617077e-01 -8.870321e-01 0.000000e+00
      outer loop
         vertex 4.300000e-03 1.200750e-01 -1.500000e-01
         vertex 4.222618e-03 1.200347e-01 -1.027264e-01
         vertex 4.222618e-03 1.200347e-01 -1.500000e-01
      endloop
   endfacet
   facet normal 3.826956e-01 -9.238745e-01 0.000000e+00
      outer loop
         vertex 4.222618e-03 1.200347e-01 -1.500000e-01
         vertex 4.222618e-03 1.200347e-01 -1.027264e-01
         vertex 4.142020e-03 1.200013e-01 -1.027264e-01
      endloop
   endfacet
   facet normal 3.826956e-01 -9.238745e-01 0.000000e+00
      outer loop
         vertex 4.222618e-03 1.200347e-01 -1.500000e-01
         vertex 4.142020e-03 1.200013e-01 -1.027264e-01
         vertex 4.142020e-03 1.200013e-01 -1.500000e-01
      endloop
   endfacet
   facet normal 3.007088e-01 -9.537160e-01 0.000000e+00
      outer loop
         vertex 4.142020e-03 1.200013e-01 -1.500000e-01
         vertex 4.142020e-03 1.200013e-01 -1.027264e-01
         vertex 4.058819e-03 1.199751e-01 -1.027264e-01
      endloop
   endfacet
   facet normal 3.007088e-01 -9.537160e-01 0.000000e+00
      outer loop
         vertex 4.142020e-03 1.200013e-01 -1.500000e-01
         vertex 4.058819e-03 1.199751e-01 -1.027264e-01
         vertex 4.058819e-03 1.199751e-01 -1.500000e-01
      endloop
   endfacet
   facet normal 2.164150e-01 -9.763015e-01 0.000000e+00
      outer loop
         vertex 4.058819e-03 1.199751e-01 -1.500000e-01
         vertex 4.058819e-03 1.199751e-01 -1.027264e-01
         vertex 3.973648e-03 1.199562e-01 -1.027264e-01
      endloop
   endfacet
   facet normal 2.164150e-01 -9.763015e-01 0.000000e+00
      outer loop
         vertex 4.058819e-03 1.199751e-01 -1.500000e-01
         vertex 3.973648e-03 1.199562e-01 -1.027264e-01
         vertex 3.973648e-03 1.199562e-01 -1.500000e-01
      endloop
   endfacet
   facet normal 1.305829e-01 -9.914374e-01 0.000000e+00
      outer loop
         vertex 3.973648e-03 1.199562e-01 -1.500000e-01
         vertex 3.973648e-03 1.199562e-01 -1.027264e-01
         vertex 3.887156e-03 1.199448e-01 -1.027264e-01
      endloop
   endfacet
   facet normal 1.305829e-01 -9.914374e-01 0.000000e+00
      outer loop
         vertex 3.973648e-03 1.199562e-01 -1.500000e-01
         vertex 3.887156e-03 1.199448e-01 -1.027264e-01
         vertex 3.887156e-03 1.199448e-01 -1.500000e-01
      endloop
   endfacet
   facet normal 4.355640e-02 -9.990510e-01 0.000000e+00
      outer loop
         vertex 3.887156e-03 1.199448e-01 -1.500000e-01
         vertex 3.887156e-03 1.199448e-01 -1.027264e-01
         vertex 3.800000e-03 1.199410e-01 -1.027264e-01
      endloop
   endfacet
   facet normal 4.355640e-02 -9.990510e-01 0.000000e+00
      outer loop
         vertex 3.887156e-03 1.199448e-01 -1.500000e-01
         vertex 3.800000e-03 1.199410e-01 -1.027264e-01
         vertex 3.800000e-03 1.199410e-01 -1.500000e-01
      endloop
   endfacet
   facet normal 4.355640e-02 9.990510e-01 -0.000000e+00
      outer loop
         vertex 3.800000e-03 1.351410e-01 -1.500000e-01
         vertex 3.800000e-03 1.351410e-01 -1.027264e-01
         vertex 3.887156e-03 1.351372e-01 -1.027264e-01
      endloop
   endfacet
   facet normal 4.355640e-02 9.990510e-01 0.000000e+00
      outer loop
         vertex 3.800000e-03 1.351410e-01 -1.500000e-01
         vertex 3.887156e-03 1.351372e-01 -1.027264e-01
         vertex 3.887156e-03 1.351372e-01 -1.500000e-01
      endloop
   endfacet
   facet normal 1.306668e-01 9.914263e-01 -0.000000e+00
      outer loop
         vertex 3.887156e-03 1.351372e-01 -1.500000e-01
         vertex 3.887156e-03 1.351372e-01 -1.027264e-01
         vertex 3.973648e-03 1.351258e-01 -1.027264e-01
      endloop
   endfacet
   facet normal 1.306668e-01 9.914263e-01 0.000000e+00
      outer loop
         vertex 3.887156e-03 1.351372e-01 -1.500000e-01
         vertex 3.973648e-03 1.351258e-01 -1.027264e-01
         vertex 3.973648e-03 1.351258e-01 -1.500000e-01
      endloop
   endfacet
   facet normal 2.164150e-01 9.763015e-01 -0.000000e+00
      outer loop
         vertex 3.973648e-03 1.351258e-01 -1.500000e-01
         vertex 3.973648e-03 1.351258e-01 -1.027264e-01
         vertex 4.058819e-03 1.351069e-01 -1.027264e-01
      endloop
   endfacet
   facet normal 2.164150e-01 9.763015e-01 0.000000e+00
      outer loop
         vertex 3.973648e-03 1.351258e-01 -1.500000e-01
         vertex 4.058819e-03 1.351069e-01 -1.027264e-01
         vertex 4.058819e-03 1.351069e-01 -1.500000e-01
      endloop
   endfacet
   facet normal 3.006311e-01 9.537405e-01 -0.000000e+00
      outer loop
         vertex 4.058819e-03 1.351069e-01 -1.500000e-01
         vertex 4.058819e-03 1.351069e-01 -1.027264e-01
         vertex 4.142020e-03 1.350807e-01 -1.027264e-01
      endloop
   endfacet
   facet normal 3.006311e-01 9.537405e-01 0.000000e+00
      outer loop
         vertex 4.058819e-03 1.351069e-01 -1.500000e-01
         vertex 4.142020e-03 1.350807e-01 -1.027264e-01
         vertex 4.142020e-03 1.350807e-01 -1.500000e-01
      endloop
   endfacet
   facet normal 3.827685e-01 9.238443e-01 -0.000000e+00
      outer loop
         vertex 4.142020e-03 1.350807e-01 -1.500000e-01
         vertex 4.142020e-03 1.350807e-01 -1.027264e-01
         vertex 4.222618e-03 1.350473e-01 -1.027264e-01
      endloop
   endfacet
   facet normal 3.827685e-01 9.238443e-01 0.000000e+00
      outer loop
         vertex 4.142020e-03 1.350807e-01 -1.500000e-01
         vertex 4.222618e-03 1.350473e-01 -1.027264e-01
         vertex 4.222618e-03 1.350473e-01 -1.500000e-01
      endloop
   endfacet
   facet normal 4.617077e-01 8.870321e-01 -0.000000e+00
      outer loop
         vertex 4.222618e-03 1.350473e-01 -1.500000e-01
         vertex 4.222618e-03 1.350473e-01 -1.027264e-01
         vertex 4.300000e-03 1.350070e-01 -1.027264e-01
      endloop
   endfacet
   facet normal 4.617077e-01 8.870321e-01 0.000000e+00
      outer loop
         vertex 4.222618e-03 1.350473e-01 -1.500000e-01
         vertex 4.300000e-03 1.350070e-01 -1.027264e-01
         vertex 4.300000e-03 1.350070e-01 -1.500000e-01
      endloop
   endfacet
   facet normal 5.373465e-01 8.433616e-01 -0.000000e+00
      outer loop
         vertex 4.300000e-03 1.350070e-01 -1.500000e-01
         vertex 4.300000e-03 1.350070e-01 -1.027264e-01
         vertex 4.373576e-03 1.349601e-01 -1.027264e-01
      endloop
   endfacet
   facet normal 5.373465e-01 8.433616e-01 0.000000e+00
      outer loop
         vertex 4.300000e-03 1.350070e-01 -1.500000e-01
         vertex 4.373576e-03 1.349601e-01 -1.027264e-01
         vertex 4.373576e-03 1.349601e-01 -1.500000e-01
      endloop
   endfacet
   facet normal 6.087621e-01 7.933529e-01 -0.000000e+00
      outer loop
         vertex 4.373576e-03 1.349601e-01 -1.500000e-01
         vertex 4.373576e-03 1.349601e-01 -1.027264e-01
         vertex 4.442788e-03 1.349070e-01 -1.027264e-01
      endloop
   endfacet
   facet normal 6.087621e-01 7.933529e-01 0.000000e+00
      outer loop
         vertex 4.373576e-03 1.349601e-01 -1.500000e-01
         vertex 4.442788e-03 1.349070e-01 -1.027264e-01
         vertex 4.442788e-03 1.349070e-01 -1.500000e-01
      endloop
   endfacet
   facet normal 6.755689e-01 7.372968e-01 -0.000000e+00
      outer loop
         vertex 4.442788e-03 1.349070e-01 -1.500000e-01
         vertex 4.442788e-03 1.349070e-01 -1.027264e-01
         vertex 4.507107e-03 1.348481e-01 -1.027264e-01
      endloop
   endfacet
   facet normal 6.755689e-01 7.372968e-01 0.000000e+00
      outer loop
         vertex 4.442788e-03 1.349070e-01 -1.500000e-01
         vertex 4.507107e-03 1.348481e-01 -1.027264e-01
         vertex 4.507107e-03 1.348481e-01 -1.500000e-01
      endloop
   endfacet
   facet normal 7.372463e-01 6.756241e-01 -0.000000e+00
      outer loop
         vertex 4.507107e-03 1.348481e-01 -1.500000e-01
         vertex 4.507107e-03 1.348481e-01 -1.027264e-01
         vertex 4.566045e-03 1.347838e-01 -1.027264e-01
      endloop
   endfacet
   facet normal 7.372463e-01 6.756241e-01 0.000000e+00
      outer loop
         vertex 4.507107e-03 1.348481e-01 -1.500000e-01
         vertex 4.566045e-03 1.347838e-01 -1.027264e-01
         vertex 4.566045e-03 1.347838e-01 -1.500000e-01
      endloop
   endfacet
   facet normal 7.933752e-01 6.087329e-01 -0.000000e+00
      outer loop
         vertex 4.566045e-03 1.347838e-01 -1.500000e-01
         vertex 4.566045e-03 1.347838e-01 -1.027264e-01
         vertex 4.619152e-03 1.347146e-01 -1.027264e-01
      endloop
   endfacet
   facet normal 7.933752e-01 6.087329e-01 0.000000e+00
      outer loop
         vertex 4.566045e-03 1.347838e-01 -1.500000e-01
         vertex 4.619152e-03 1.347146e-01 -1.027264e-01
         vertex 4.619152e-03 1.347146e-01 -1.500000e-01
      endloop
   endfacet
   facet normal 8.433598e-01 5.373493e-01 -0.000000e+00
      outer loop
         vertex 4.619152e-03 1.347146e-01 -1.500000e-01
         vertex 4.619152e-03 1.347146e-01 -1.027264e-01
         vertex 4.666025e-03 1.346410e-01 -1.027264e-01
      endloop
   endfacet
   facet normal 8.433598e-01 5.373493e-01 0.000000e+00
      outer loop
         vertex 4.619152e-03 1.347146e-01 -1.500000e-01
         vertex 4.666025e-03 1.346410e-01 -1.027264e-01
         vertex 4.666025e-03 1.346410e-01 -1.500000e-01
      endloop
   endfacet
   facet normal 8.870103e-01 4.617497e-01 -0.000000e+00
      outer loop
         vertex 4.666025e-03 1.346410e-01 -1.500000e-01
         vertex 4.666025e-03 1.346410e-01 -1.027264e-01
         vertex 4.706308e-03 1.345636e-01 -1.027264e-01
      endloop
   endfacet
   facet normal 8.870103e-01 4.617497e-01 0.000000e+00
      outer loop
         vertex 4.666025e-03 1.346410e-01 -1.500000e-01
         vertex 4.706308e-03 1.345636e-01 -1.027264e-01
         vertex 4.706308e-03 1.345636e-01 -1.500000e-01
      endloop
   endfacet
   facet normal 9.238841e-01 3.826725e-01 -0.000000e+00
      outer loop
         vertex 4.706308e-03 1.345636e-01 -1.500000e-01
         vertex 4.706308e-03 1.345636e-01 -1.027264e-01
         vertex 4.739692e-03 1.344830e-01 -1.027264e-01
      endloop
   endfacet
   facet normal 9.238841e-01 3.826725e-01 0.000000e+00
      outer loop
         vertex 4.706308e-03 1.345636e-01 -1.500000e-01
         vertex 4.739692e-03 1.344830e-01 -1.027264e-01
         vertex 4.739692e-03 1.344830e-01 -1.500000e-01
      endloop
   endfacet
   facet normal 9.537232e-01 3.006858e-01 -0.000000e+00
      outer loop
         vertex 4.739692e-03 1.344830e-01 -1.500000e-01
         vertex 4.739692e-03 1.344830e-01 -1.027264e-01
         vertex 4.765926e-03 1.343998e-01 -1.027264e-01
      endloop
   endfacet
   facet normal 9.537232e-01 3.006858e-01 0.000000e+00
      outer loop
         vertex 4.739692e-03 1.344830e-01 -1.500000e-01
         vertex 4.765926e-03 1.343998e-01 -1.027264e-01
         vertex 4.765926e-03 1.343998e-01 -1.500000e-01
      endloop
   endfacet
   facet normal 9.762990e-01 2.164263e-01 -0.000000e+00
      outer loop
         vertex 4.765926e-03 1.343998e-01 -1.500000e-01
         vertex 4.765926e-03 1.343998e-01 -1.027264e-01
         vertex 4.784808e-03 1.343146e-01 -1.027264e-01
      endloop
   endfacet
   facet normal 9.762990e-01 2.164263e-01 0.000000e+00
      outer loop
         vertex 4.765926e-03 1.343998e-01 -1.500000e-01
         vertex 4.784808e-03 1.343146e-01 -1.027264e-01
         vertex 4.784808e-03 1.343146e-01 -1.500000e-01
      endloop
   endfacet
   facet normal 9.914432e-01 1.305390e-01 -0.000000e+00
      outer loop
         vertex 4.784808e-03 1.343146e-01 -1.500000e-01
         vertex 4.784808e-03 1.343146e-01 -1.027264e-01
         vertex 4.796195e-03 1.342282e-01 -1.027264e-01
      endloop
   endfacet
   facet normal 9.914432e-01 1.305390e-01 0.000000e+00
      outer loop
         vertex 4.784808e-03 1.343146e-01 -1.500000e-01
         vertex 4.796195e-03 1.342282e-01 -1.027264e-01
         vertex 4.796195e-03 1.342282e-01 -1.500000e-01
      endloop
   endfacet
   facet normal 9.990482e-01 4.361975e-02 -0.000000e+00
      outer loop
         vertex 4.796195e-03 1.342282e-01 -1.500000e-01
         vertex 4.796195e-03 1.342282e-01 -1.027264e-01
         vertex 4.800000e-03 1.341410e-01 -1.027264e-01
      endloop
   endfacet
   facet normal 9.990482e-01 4.361975e-02 0.000000e+00
      outer loop
         vertex 4.796195e-03 1.342282e-01 -1.500000e-01
         vertex 4.800000e-03 1.341410e-01 -1.027264e-01
         vertex 4.800000e-03 1.341410e-01 -1.500000e-01
      endloop
   endfacet
endsolid