solid sensor
   facet normal -1.000000e+00 0.000000e+00 0.000000e+00
      outer loop
         vertex -1.000000e-02 9.319000e-02 -4.731000e-02
         vertex -1.000000e-02 1.000000e-01 -4.731000e-02
         vertex -1.000000e-02 9.319000e-02 -6.731000e-02
      endloop
   endfacet
   facet normal -1.000000e+00 0.000000e+00 0.000000e+00
      outer loop
         vertex -1.000000e-02 9.319000e-02 -6.731000e-02
         vertex -1.000000e-02 1.000000e-01 -4.731000e-02
         vertex -1.000000e-02 1.000000e-01 -6.731000e-02
      endloop
   endfacet
   facet normal 0.000000e+00 -0.000000e+00 1.000000e+00
      outer loop
         vertex 1.000000e-02 9.319000e-02 -4.731000e-02
         vertex 1.000000e-02 1.000000e-01 -4.731000e-02
         vertex -1.000000e-02 9.319000e-02 -4.731000e-02
      endloop
   endfacet
   facet normal 0.000000e+00 0.000000e+00 1.000000e+00
      outer loop
         vertex -1.000000e-02 9.319000e-02 -4.731000e-02
         vertex 1.000000e-02 1.000000e-01 -4.731000e-02
         vertex -1.000000e-02 1.000000e-01 -4.731000e-02
      endloop
   endfacet
   facet normal 1.000000e+00 0.000000e+00 -0.000000e+00
      outer loop
         vertex 1.000000e-02 1.000000e-01 -6.731000e-02
         vertex 1.000000e-02 1.000000e-01 -4.731000e-02
         vertex 1.000000e-02 9.319000e-02 -6.731000e-02
      endloop
   endfacet
   facet normal 1.000000e+00 0.000000e+00 0.000000e+00
      outer loop
         vertex 1.000000e-02 9.319000e-02 -6.731000e-02
         vertex 1.000000e-02 1.000000e-01 -4.731000e-02
         vertex 1.000000e-02 9.319000e-02 -4.731000e-02
      endloop
   endfacet
   facet normal 0.000000e+00 0.000000e+00 -1.000000e+00
      outer loop
         vertex -1.000000e-02 1.000000e-01 -6.731000e-02
         vertex 1.000000e-02 1.000000e-01 -6.731000e-02
         vertex -1.000000e-02 9.319000e-02 -6.731000e-02
      endloop
   endfacet
   facet normal 0.000000e+00 0.000000e+00 -1.000000e+00
      outer loop
         vertex -1.000000e-02 9.319000e-02 -6.731000e-02
         vertex 1.000000e-02 1.000000e-01 -6.731000e-02
         vertex 1.000000e-02 9.319000e-02 -6.731000e-02
      endloop
   endfacet
   facet normal 0.000000e+00 1.000000e+00 0.000000e+00
      outer loop
         vertex 1.000000e-02 1.000000e-01 -4.731000e-02
         vertex 1.000000e-02 1.000000e-01 -6.731000e-02
         vertex -1.000000e-02 1.000000e-01 -4.731000e-02
      endloop
   endfacet
   facet normal 0.000000e+00 1.000000e+00 0.000000e+00
      outer loop
         vertex -1.000000e-02 1.000000e-01 -4.731000e-02
         vertex 1.000000e-02 1.000000e-01 -6.731000e-02
         vertex -1.000000e-02 1.000000e-01 -6.731000e-02
      endloop
   endfacet
   facet normal 0.000000e+00 -1.000000e+00 0.000000e+00
      outer loop
         vertex -1.000000e-02 9.319000e-02 -4.731000e-02
         vertex -1.000000e-02 9.319000e-02 -6.731000e-02
         vertex 1.000000e-02 9.319000e-02 -4.731000e-02
      endloop
   endfacet
   facet normal 0.000000e+00 -1.000000e+00 -0.000000e+00
      outer loop
         vertex 1.000000e-02 9.319000e-02 -4.731000e-02
         vertex -1.000000e-02 9.319000e-02 -6.731000e-02
         vertex 1.000000e-02 9.319000e-02 -6.731000e-02
      endloop
   endfacet
endsolid